<svg xmlns="http://www.w3.org/2000/svg" xmlns:xlink="http://www.w3.org/1999/xlink" width="100%" height="auto" viewBox="0 0 879.984 760"><defs><style>.a{fill:#c6fbff;}.b{fill:url(#a);}.c{fill:#59c4dd;}.d{fill:#58c1db;opacity:0.4;}.e{fill:#34717c;}.f{fill:#dd9982;}.g{fill:#dede25;}.h{fill:#3c6076;}.i{fill:#5384a2;}.j{fill:#d3994b;}.k{fill:#94c097;}.l{fill:#dc9248;}.m{fill:#c74037;}.n{fill:#4aa075;}.o{fill:#28aca7;}.p{fill:#0dc9c2;}.q{fill:#dbaf5d;}.r{fill:#cd823e;}.s{fill:#b1d8f5;}.t{fill:#027773;}.u{fill:#a87233;}.v{fill:#d37535;}.w{fill:#87bca4;}.x{fill:#cd5d52;}.y{fill:#d27356;}.z{fill:#8bbfae;}.aa{fill:#fff;}.ab{fill:#d57d67;}.ac{fill:#192b31;}.ad{fill:#46a8c0;}.ae{fill:#e2f0fc;}.af{fill:#5c3716;}.ag{fill:#327381;}.ah{fill:#aa0;}.ai{fill:#5a6f76;}.aj{fill:#e6f1fc;}.ak{fill:#d16c61;}.al{fill:#eac2a4;}.am{fill:#5b556c;}.an{fill:#e0ebf7;}.ao{fill:#b7d6f2;}.ap{fill:#87b4d6;}.aq{fill:#fcf9fa;}.ar{fill:#e2a783;}.as{fill:#354c58;}.at{fill:#e9f4fd;}.au{fill:#99534a;}.av{fill:#c1dcf3;}.aw{fill:#72431d;}.ax{fill:#d78570;}.ay{fill:#cd5b5a;}.az{fill:#dac19d;}.ba{fill:#5a7665;}.bb{fill:#bade87;}.bc{fill:#7ca88b;}.bd{fill:#a8967c;}.be{fill:#d37635;}.bf{fill:#c77035;}.bg{fill:#d1e3f5;}.bh{fill:#75b291;}.bi{fill:#a8392f;}.bj{fill:#b03c40;}.bk{fill:#d06757;}.bl{fill:#5c3729;}.bm{fill:#1c4960;}.bn{fill:#6c848c;}.bo{fill:#df9c26;}.bp{fill:#116783;}.bq{fill:#cc8942;}.br{fill:#b27b3a;}.bs{fill:#c47022;}.bt{fill:#d78225;}.bu{fill:#e2a781;}.bv{fill:#6f361b;}</style><linearGradient id="a" x1="0.335" y1="-0.075" x2="0.344" y2="1.383" gradientUnits="objectBoundingBox"><stop offset="0" stop-color="#39eae3" stop-opacity="0.396"/><stop offset="1" stop-color="#00503a" stop-opacity="0.141"/></linearGradient></defs><g transform="translate(1.089)"><rect class="a" width="867" height="760"/><path class="b" d="M492,653.3H-259.089v-190.3s60.5-134.644,255.541-88.554S201.986,111.285,492,133.167,492,653.3,492,653.3Z" transform="translate(258)"/><path class="c" d="M-188.1,598.039s-23.887-43.349-11.863-62.589,26.712,13.814,26.712,13.814,4.482-30.641,23.143-43.049,51.226,22.864,23.672,91.824H-188.1Z" transform="translate(279.321 30.426)"/><path class="c" d="M-188.1,598.039s-23.887-43.349-11.863-62.589,26.712,13.814,26.712,13.814,4.482-30.641,23.143-43.049,51.226,22.864,23.672,91.824H-188.1Z" transform="translate(598.321 30.426)"/><path class="d" d="M-180,786.846S-300.139,683.877-281.732,626.1c14.3-44.889,60.395-58.729,75.3-6.545,5.031,3.672,8.272,6.545,8.272,6.545s35.064-43.666,37.018-123.054S-43.415,579.781-85.6,786.846H-180Z" transform="translate(840.321 -207.761)"/><rect class="c" width="750" height="139" transform="translate(0 621)"/><g transform="translate(113.033 285.964)"><ellipse class="e" cx="339.94" cy="10.78" rx="339.94" ry="10.78" transform="translate(33.65 363.76)"/><path class="f" d="M507.82,171.74s-3.76-3.6-7.06-3.44-.15,7,.79,7.36,4.86,2.51,5.48,1.57S507.82,171.74,507.82,171.74Z"/><path class="g" d="M551.23,160.77a19.94,19.94,0,0,0-10.65,4.86c-1.82,1.92-11.13,12.3-13.64,13.25s-16.81-7.72-18.69-7.88-4.66,5.92-5.14,7.8,21.24,12.87,25.31,13.65,11.1-3.7,11.1-3.7,4.82,13.05-3.33,34.56c-.92,2.42,49.21,3.53,49.06,3.06s-.24-50.08-4.47-55.49c-3.2-4.09-14.19-9.95-14.19-9.95l-8.93-1.41Z"/><path class="f" d="M554.06,150.27s.47,6.58-2.83,10.5c0,0,1.1,5.8,7.21,5.17s8.15-5,8.15-5-2.66-9.72-3-13.64S554.61,148.82,554.06,150.27Z"/><path class="h" d="M498,186.65,481.58,138a2.62,2.62,0,0,1,1.5-3.31l3.24-1.17a2.38,2.38,0,0,1,3.05,1.55l17,49.13a2.58,2.58,0,0,1-1.86,3.42l-3.83.69a2.41,2.41,0,0,1-2.68-1.66Z"/><path class="i" d="M483.21,188.67V172.53c0-4.7,7.68-5.18,9.87-1.57s6.74,17.71,6.74,17.71Z"/><path class="j" d="M588.69,226.35a6.41,6.41,0,0,1-5.17-9.63c2.58-4.71,11.52-8,29.62-7.65s27.62,2.36,29.74,8.12-1.06,8.58-5.17,9.52S593.86,226.47,588.69,226.35Z"/><path class="k" d="M568.14,200.2a2.87,2.87,0,0,1,1.52-3.27,1,1,0,0,1,.91-.05.929.929,0,0,1,.32.36c.56,1-.14,2.26-.44,3.4a1.63,1.63,0,0,1,1.6-1c2.91.22.7,3.43-.41,4.26-1.38,1-3,1.59-4.6.6a6.45,6.45,0,0,1-2.51-4.41C564,196.75,567.14,198.39,568.14,200.2Z"/><path class="l" d="M557.17,212.53a59.392,59.392,0,0,0-2.72,11.94,3.51,3.51,0,0,0,.46,3,2.35,2.35,0,0,0,2.35.48,6.32,6.32,0,0,0,2.13-1.33A50.089,50.089,0,0,0,570,214.18c1.5-2.49,2.79-5.61,1.49-8.21a7.36,7.36,0,0,0-2.85-2.82c-2.59-1.58-5.13-1.47-6.9,1a36.089,36.089,0,0,0-4.57,8.38Z"/><path class="k" d="M576.67,214.7a2.85,2.85,0,0,1,3-1.95.791.791,0,0,1,.87.91c-.08,1.17-1.32,1.83-2.17,2.64a1.61,1.61,0,0,1,1.88,0c2.34,1.73-1.22,3.26-2.6,3.37-1.72.14-3.4-.27-4.19-1.94a6.42,6.42,0,0,1,.22-5C575,209.61,576.79,212.64,576.67,214.7Z"/><path class="k" d="M521.77,195.43a6.9,6.9,0,0,1,4.48.41,5.58,5.58,0,0,1,1.47-3.5c.14-.14.35-.29.53-.19a.45.45,0,0,1,.17.3,9.61,9.61,0,0,1,.27,3.54,3.6,3.6,0,0,1,3.51,1.65c-1.42.9-4.7,2-6.35,1.23-.62-.27-1.08-1-1.63-1.34a11.76,11.76,0,0,0-3.08-1.41C521.11,195.73,521.37,195.53,521.77,195.43Z"/><path class="m" d="M517.14,201.37A8.56,8.56,0,0,0,530.91,211a7.37,7.37,0,0,0,2.24-4.16,10.54,10.54,0,0,0-.76-5,5.91,5.91,0,0,0-1.6-2.68,5.67,5.67,0,0,0-2.45-1C524.35,197.28,519,197,517.14,201.37Z"/><path class="k" d="M533.93,201.32a6.37,6.37,0,0,1,4.12.48,5.06,5.06,0,0,1,1.44-3.19c.13-.14.33-.27.49-.17a.39.39,0,0,1,.15.28,8.78,8.78,0,0,1,.17,3.27,3.33,3.33,0,0,1,3.21,1.61c-1.34.8-4.39,1.69-5.89,1-.58-.26-1-.9-1.48-1.27a11,11,0,0,0-2.82-1.38C533.31,201.58,533.55,201.41,533.93,201.32Z"/><path class="m" d="M529.51,206.71A7.91,7.91,0,0,0,542,215.89a6.8,6.8,0,0,0,2.16-3.79,9.731,9.731,0,0,0-.59-4.64,5.42,5.42,0,0,0-1.42-2.51,5.16,5.16,0,0,0-2.24-1C536.27,203.09,531.37,202.72,529.51,206.71Z"/><path class="k" d="M525.56,208.69a7.2,7.2,0,0,1,4.1,2.34,5.86,5.86,0,0,1,2.94-2.7c.19-.08.46-.13.58,0a.529.529,0,0,1,0,.37,10.071,10.071,0,0,1-1.29,3.49,3.82,3.82,0,0,1,2.64,3.12c-1.76.24-5.35-.19-6.61-1.59a10.874,10.874,0,0,1-1-2,12.74,12.74,0,0,0-2.33-2.69A.837.837,0,0,1,525.56,208.69Z"/><path class="k" d="M541,212a50.445,50.445,0,0,1,3.53,3.63,27.279,27.279,0,0,1-9,7.12,21.88,21.88,0,0,0,8.26.36,7.53,7.53,0,0,1-.56,3.83,6.27,6.27,0,0,1-2.84,2.41,18.27,18.27,0,0,1-9.28,1.84c-2.16-.14-6.67-.62-7.88-2.76-.69-1.22-.35-5.7.59-6.39s3.13-1,4.38-1.44A35.931,35.931,0,0,0,541,212Z"/><path class="n" d="M540.22,221.54a3.23,3.23,0,0,1-1.86-1.9,1.72,1.72,0,0,1,1.16-2.14,3.62,3.62,0,0,1-.47-6.22,4.09,4.09,0,0,1,3.58-5.89A5.87,5.87,0,0,1,549,201a2.18,2.18,0,0,1,1.67,1,3.54,3.54,0,0,1,4.19.29,5.12,5.12,0,0,1,1.69,4,3,3,0,0,1,3.24,1.76,6.211,6.211,0,0,1,.25,3.91,3.41,3.41,0,0,1,1.58,5.66,1.66,1.66,0,0,1,1.11,2,4.731,4.731,0,0,1-1.32,2.14,2.65,2.65,0,0,1,.09,3.48,7.7,7.7,0,0,1-3.14,2.13,19.811,19.811,0,0,1-6.76,2.16,16.56,16.56,0,0,1-9.09-2.25C540.9,226.22,538.81,223.44,540.22,221.54Z"/><rect class="o" width="359.72" height="135.42" transform="translate(336.97 235.54)"/><rect class="p" width="359.72" height="24.22" transform="translate(336.97 346.74)"/><rect class="q" width="47.87" height="40.37" transform="translate(464.49 185.29)"/><path class="r" d="M512.36,185.29l6.11,4.62v35.75h-6.11Z"/><path class="m" d="M518.54,212.35a9,9,0,0,0,9,15.19,7.74,7.74,0,0,0,4-3,11.161,11.161,0,0,0,1.46-5.11,6.34,6.34,0,0,0-.36-3.27,6,6,0,0,0-1.91-2C527.23,211.58,522.26,209,518.54,212.35Z"/><path class="l" d="M560.9,219.26a59,59,0,0,0-8.62,8.61c-.67.78-1.39,1.72-1.19,2.73a2.32,2.32,0,0,0,1.73,1.65,6.19,6.19,0,0,0,2.5,0,49.48,49.48,0,0,0,15.47-4.82c2.59-1.31,5.33-3.24,5.61-6.12a7.23,7.23,0,0,0-.91-3.89c-1.33-2.71-3.53-4-6.33-2.81a35.679,35.679,0,0,0-8.26,4.65Z"/><path class="s" d="M650.37,228c-.39-1.45.47-31.27.47-35.73s4.7-5.41,5.88-7.53.71-5.87.71-6.82,6.11-.7,6.11-.7.23,3.76.23,6.11,3.77,2.35,4.94,7.29.47,35.5.71,37.38S651.08,230.6,650.37,228Z"/><path class="m" d="M657,174.25c-1.07.54-.15,2.67-.15,3.21s7.29.55,7.76.24.07-2.66-.08-3.45S657.5,174,657,174.25Z"/><path class="s" d="M673.33,227.07c-.39-1.45.48-31.27.48-35.73s4.7-5.41,5.87-7.53.71-5.88.71-6.82,6.11-.7,6.11-.7.24,3.76.24,6.11,3.76,2.35,4.93,7.29.47,35.5.71,37.38S674,229.66,673.33,227.07Z"/><path class="n" d="M679.76,174.25c-1.07.54-.16,2.67-.16,3.21s7.29.55,7.76.24.08-2.66-.08-3.45S680.23,174,679.76,174.25Z"/><rect class="t" width="383.23" height="13.17" rx="6.42" transform="translate(326.63 225.66)"/><path class="h" d="M492.14,175a3.14,3.14,0,1,1-3.14-3.1,3.14,3.14,0,0,1,3.14,3.1Z"/><path class="u" d="M594.26,215h0C594.1,215.11,594.16,215.1,594.26,215Z"/><path class="u" d="M596.2,211.08a2,2,0,0,0-1,.09,5.679,5.679,0,0,0-1,.43,14.232,14.232,0,0,0-1.48,1,10.284,10.284,0,0,0-1.55,1.24,3,3,0,0,0-.65.86,5.034,5.034,0,0,0-.24.53,1.14,1.14,0,0,0,.06.75.73.73,0,0,0,.51.55,2.23,2.23,0,0,0,2-.46,10.105,10.105,0,0,0,.9-.68l.32-.25.16-.13h0c.44-.34.9-.65,1.35-1a6.545,6.545,0,0,0,.81-.67,2.722,2.722,0,0,0,.37-.39.63.63,0,0,0,.16-.27v-.18a1,1,0,0,0-.72-1.42Z"/><path class="u" d="M615.46,210.45a1.48,1.48,0,0,0-1.3-.41,5.331,5.331,0,0,0-.54.07,2.631,2.631,0,0,0-.55.24l-.48.26a16.778,16.778,0,0,0-1.89,1.26,15.376,15.376,0,0,0-1.85,1.48,4.29,4.29,0,0,0-.91,1.35,2.11,2.11,0,0,0,.17,1.8,1.34,1.34,0,0,0,1,.67,1.44,1.44,0,0,0,1.18-.39c-.34.28-.2.16-.11.1a1.87,1.87,0,0,0,.42-.32,7.107,7.107,0,0,0,.46-.62.41.41,0,0,1,.07-.11c.1-.11.19-.22.3-.32s.46-.41.69-.6l.42-.34.21-.17h0c.63-.47,1.26-.94,1.88-1.42l.13-.1h.05l.24-.19a3.41,3.41,0,0,0,.43-.64,1.31,1.31,0,0,0-.02-1.6Z"/><path class="u" d="M631.78,211.36a4.15,4.15,0,0,0-2,.78c-.54.4-1.08.81-1.61,1.23a3.418,3.418,0,0,0-.57.57,5.833,5.833,0,0,0-.67.92c-.08.16-.16.31-.23.47a1.768,1.768,0,0,0-.11.44v.07a2.45,2.45,0,0,0-.1.54,1.15,1.15,0,0,0,.1.48,1.55,1.55,0,0,1,.08.19.4.4,0,0,0,.31.28,1.4,1.4,0,0,0,1.23.07h.01a1.3,1.3,0,0,0,.45-.12l.48-.22a6,6,0,0,0,1.57-1.16,8.511,8.511,0,0,0,2.41-2.8,1.38,1.38,0,0,0-1.35-1.74Z"/><path class="u" d="M604.88,210.46a.87.87,0,0,0-.83-.22h-.32a1.6,1.6,0,0,0-.51.2,3.228,3.228,0,0,0-.76.5l-1.07,1-1,.94a2.34,2.34,0,0,0-.67.83,3.507,3.507,0,0,0-.15.42,1.73,1.73,0,0,0,0,.75,1,1,0,0,0,.71.71,2,2,0,0,0,1-.06,2.44,2.44,0,0,0,1-.69l1-1,1-1a3.6,3.6,0,0,0,.54-.74,2.66,2.66,0,0,0,.3-.83.9.9,0,0,0-.24-.81Z"/><path class="u" d="M624.65,211.5a.92.92,0,0,0-.44-.88l.11.09a.86.86,0,0,0-.27-.2,1.389,1.389,0,0,0-.66-.18H623a3,3,0,0,0-1.18.27,5.21,5.21,0,0,0-1.12.59l-.76.55c-.57.43-1.13.88-1.66,1.36a3.65,3.65,0,0,0-.77.94c-.08.14-.16.28-.23.42a2.26,2.26,0,0,0-.19.89,1.14,1.14,0,0,0,1.14,1.13,2,2,0,0,0,.73-.12l.5-.23a3.609,3.609,0,0,0,.44-.22,5.293,5.293,0,0,0,.59-.47l.23-.18h.06l.14-.1.76-.54a20.232,20.232,0,0,0,1.74-1.16,3.678,3.678,0,0,0,.82-.85l.08-.12.14-.19a1.36,1.36,0,0,0,.19-.8Z"/><path class="u" d="M620.72,215.26l.08-.07h0Z"/><path class="v" d="M563.83,224.46l-.06-.08S563.9,224.54,563.83,224.46Z"/><path class="v" d="M565.75,223.89a1.651,1.651,0,0,0-.06-.21,1.729,1.729,0,0,0-.34-.57c-.12-.15-.24-.29-.37-.43a6.621,6.621,0,0,0-.83-.76,10.838,10.838,0,0,0-1-.72l-.26-.14a1.37,1.37,0,0,0-.59-.16,1.1,1.1,0,0,0-.62,0,.54.54,0,0,0-.35.4v.09a1.473,1.473,0,0,0,0,.19.83.83,0,0,0,.14.3,2.3,2.3,0,0,0,.51.61c-.18-.14,0,0,.06.05l.2.17.41.38c.25.24.49.49.72.74a4.052,4.052,0,0,1,.33.38l.11.13h0a1.8,1.8,0,0,0,.32.35,4.252,4.252,0,0,0,.46.32,1.07,1.07,0,0,0,.66.11.62.62,0,0,0,.49-.36,1.17,1.17,0,0,0,.01-.87Z"/><path class="v" d="M573.18,221.23a7.421,7.421,0,0,0-1-1.51,8.112,8.112,0,0,0-1.17-1.1,7.152,7.152,0,0,0-.77-.59,5,5,0,0,0-.7-.34,5.806,5.806,0,0,0-.82-.32,7.323,7.323,0,0,0-.8-.11.33.33,0,0,0-.28.49c.13.17.25.36.37.54s.33.41.49.61l.08.1a.989.989,0,0,1,.08.11c.07.1.13.2.2.29l.36.43a.608.608,0,0,0,.07.1l.06.07h0a12.334,12.334,0,0,1,.8,1.23c.12.21.26.42.38.64s.23.47.36.7a1.33,1.33,0,0,0,1.15.66,1.28,1.28,0,0,0,1-.39,1.43,1.43,0,0,0,.14-1.61Z"/><path class="v" d="M569.27,219.93l.06.08h0Z"/><path class="v" d="M567.25,210.71c-.53-.26-1.12-.43-1.67-.64L564,209.5a4.091,4.091,0,0,0-.81-.28,2,2,0,0,0-.54.05.83.83,0,0,0-.21.06s-.23.12-.14.08a.31.31,0,0,0-.18.42.62.62,0,0,0,0,.12.5.5,0,0,0,.1.19,4,4,0,0,0,.24.33,2.09,2.09,0,0,0,.74.42l1.34.58,1.34.58.34.15.11.06h0c.06.06.14.15,0,0h0a.649.649,0,0,0,.17.16.82.82,0,0,0,1.46-.21,1.35,1.35,0,0,0-.71-1.5Z"/><path class="v" d="M568.24,205.42a6.329,6.329,0,0,0-1.76-.79,8.25,8.25,0,0,0-1.85-.33,2.4,2.4,0,0,0-1,.18,1.93,1.93,0,0,0-.47.19,1.081,1.081,0,0,0-.28.32.31.31,0,0,0,0,.42c.1.09.09.11.22.22a1.39,1.39,0,0,0,.45.19l.31.12.15.07a1.09,1.09,0,0,0,.24.07,3.117,3.117,0,0,1,.79.18l.39.13.17.06.14.06h.08l.16.08.36.19.69.42.34.23h.06l.08.06a2,2,0,0,0,1.18.58,1,1,0,0,0,.94-.94C569.61,206.37,568.88,205.87,568.24,205.42Z"/><path class="w" d="M555.47,210.12a3.31,3.31,0,0,0-1.71-1.46h0a3.685,3.685,0,0,0-.12-.81,4.56,4.56,0,0,0-1.7-2.45,4.26,4.26,0,0,0-1.4-.69c-.58-.16-1.52-.31-1.9.29a.62.62,0,0,0,.09.74,1.36,1.36,0,0,0,.92.28h.12a2.221,2.221,0,0,1,.37.09l.15.06.27.13c.09.06.19.11.28.18l.12.08h0s.31.31.46.47h0a.873.873,0,0,1,.07.1,3.435,3.435,0,0,1,.2.32c0,.08.09.17.13.25h0a.986.986,0,0,0,0,.16,1.209,1.209,0,0,0,.09.31c.03.1,0,.07,0,.11H552a1.631,1.631,0,0,0-.49.09l-.42.14a.37.37,0,0,0,0,.7,2.606,2.606,0,0,1,.34.16,2.49,2.49,0,0,0,.45.18l.77.24a2.814,2.814,0,0,1,.31.1h.11l.2.11.14.08.1.07h0c.08,0,.19.17.25.23v.05l.06.08a2.7,2.7,0,0,1,.16.29h0v.16a.94.94,0,0,1,0,.16h0v.32h0a.682.682,0,0,0,0,.2v.11h0a1.777,1.777,0,0,0,0,.46l.06.14a.322.322,0,0,1,0,.09.47.47,0,0,0,.45.33,1,1,0,0,0,.79-.29,1.61,1.61,0,0,0,.44-1A3,3,0,0,0,555.47,210.12Z"/><path class="w" d="M559,215.77a1.5,1.5,0,0,0-.57-.55,1.4,1.4,0,0,0-.7-.14.23.23,0,0,0-.2.14.22.22,0,0,0,.05.24l.09.09h.05l.06.11v.06h0l.09.19h0a1.59,1.59,0,0,1,.05.21,2.148,2.148,0,0,0,0,.26,1.129,1.129,0,0,1,0,.26.789.789,0,0,1-.06.22l.05-.13a.73.73,0,0,0-.06.48.63.63,0,0,0,1.14.15,2,2,0,0,0,.21-.86,1.341,1.341,0,0,0-.2-.73Z"/><path class="w" d="M544.93,216.35a2.079,2.079,0,0,0-.47-.63,1.85,1.85,0,0,0,.27-1,3.37,3.37,0,0,0-.44-1.7,3.18,3.18,0,0,0-1.21-1.15,3.811,3.811,0,0,0-.79-.31,2.67,2.67,0,0,0-.47-.07,1.07,1.07,0,0,0-.5.1.66.66,0,0,0,0,1.27c-.17-.06,0,0,0,0a1.389,1.389,0,0,0,.26.1l.29.06.15.05h0l.25.13a.41.41,0,0,1,.11.07h0a1.369,1.369,0,0,1,.18.16l.09.1v0c0-.06.14.23.16.26h0v.08a2.673,2.673,0,0,1,.07.27v.73h0a1.121,1.121,0,0,0-.32,0,1.921,1.921,0,0,0-.51.22.21.21,0,0,0,.1.38,1.091,1.091,0,0,1,.3.07h0l.24.09h.07l.14.07h0a.42.42,0,0,0,.32.26.34.34,0,0,1,.08.09s.07.09,0,0h0a1.389,1.389,0,0,1,.1.16,1.09,1.09,0,0,1,.08.15h0a2.006,2.006,0,0,1,.09.35v-.17a1,1,0,0,0,.16.54.74.74,0,0,0,.35.28h0a.42.42,0,0,0,.25,0,.71.71,0,0,0,.47-.45A1.11,1.11,0,0,0,544.93,216.35Z"/><path class="w" d="M551.53,216.88a2.24,2.24,0,0,0-.51-1,3.624,3.624,0,0,0-.42-.36l-.18-.11a1.15,1.15,0,0,0-.45-.11,1.36,1.36,0,0,0-.35,0,.62.62,0,0,0-.3.06l-.12.1a.11.11,0,0,0,0,.12.53.53,0,0,0,.13.26l.08.1h0V216l.13.23a1.712,1.712,0,0,0,.2.27c.09.12.15.25.23.37a2.056,2.056,0,0,1,.23.41.7.7,0,0,0,.08.2.73.73,0,0,0,.61.35.65.65,0,0,0,.45-.2.73.73,0,0,0,.19-.75Z"/><path class="w" d="M550,222.81a2.272,2.272,0,0,0,0-.45,2.46,2.46,0,0,0-.25-.75,2.258,2.258,0,0,0-.26-.37,1,1,0,0,0-.35-.24,1.82,1.82,0,0,0-.76-.16.2.2,0,0,0-.1.37,1.19,1.19,0,0,1,.2.19h0l.05.06.07.12s.1.2,0,.06a.692.692,0,0,0,.1.19l.06.07h0a.6.6,0,0,0,.09.15.639.639,0,0,1,.08.14h0v.15a1.25,1.25,0,0,1,0,.16h0v.47a.07.07,0,0,1,0,.05h0a.521.521,0,0,0,.07.23h0a.24.24,0,0,0,.41.17h.06a.47.47,0,0,0,.21-.16,1.21,1.21,0,0,0,.32-.45Z"/><path class="x" d="M524.38,214a.81.81,0,0,0-.22-.38.891.891,0,0,0-.3-.31,1.68,1.68,0,0,0-1-.36h-.27a2.61,2.61,0,0,0-.56.08,3.842,3.842,0,0,0-.54.22,4.105,4.105,0,0,0-.51.27,5.331,5.331,0,0,0-.46.32,4.221,4.221,0,0,0-.75.64.758.758,0,0,0-.08.11,2,2,0,0,0-.43.65,1.41,1.41,0,0,0-.15.7V216a.282.282,0,0,1,0,.09,1.62,1.62,0,0,0,.74,1.54,1.6,1.6,0,0,0,1.23.13l.2-.05a2.22,2.22,0,0,0,1-.52l.23-.19-.37.29c.21-.16.4-.32.6-.49h0a4.763,4.763,0,0,1,.47-.31,3.7,3.7,0,0,0,.47-.29l.42-.36c.09-.11.18-.22.26-.34l.18-.41.06-.45a1.22,1.22,0,0,0-.22-.64Z"/><path class="x" d="M526.32,200.26a.76.76,0,0,0-.16-.37.72.72,0,0,0-.4-.28l-.45-.05a2.61,2.61,0,0,0-1.36,0,4.66,4.66,0,0,0-.73.3l-.29.22h0l-.07.08a1.558,1.558,0,0,0-.16.2,1,1,0,0,0-.28.43,1.13,1.13,0,0,0-.12.51v.36a1,1,0,0,0,.24.46,1.33,1.33,0,0,0,.7.48,1.38,1.38,0,0,0,1-.14l.32-.17a2.181,2.181,0,0,0,.53-.43l.25-.21a1.8,1.8,0,0,0,.26-.34,2.729,2.729,0,0,1,.4-.31.8.8,0,0,0,.32-.74Z"/><path class="y" d="M652.72,223.55c.33,1.8,12.93,1.64,13.64.47s2.35-29.63.71-32.68-2.36-3.53-3.77-4.24-4.7-.7-6.11.47-3.06,2.59-3.76,6.82S652.25,221,652.72,223.55Z"/><path class="z" d="M675.47,223.55c.33,1.8,12.93,1.64,13.64.47s2.35-29.63.7-32.68-2.35-3.53-3.76-4.24-4.7-.7-6.11.47-3.06,2.59-3.76,6.82S675,221,675.47,223.55Z"/><path class="aa" d="M667.26,205.76a.433.433,0,0,0,0-.07,1.31,1.31,0,0,0-.86-.91,1.67,1.67,0,0,0-1.06-.37h-.82a3.259,3.259,0,0,0-.2-.48,4.26,4.26,0,0,0-2.47-2.47,3.6,3.6,0,0,0-1.8-.4l-1.24.17a4.62,4.62,0,0,0-2.06,1.2l-.73.94a4.774,4.774,0,0,0-.44,1h-1.37a1.74,1.74,0,0,0-1.36.69,1.67,1.67,0,0,0-.37,1,1.71,1.71,0,0,0,.41,1.09,1.74,1.74,0,0,0,1.32.64h1.71a4.14,4.14,0,0,0,2.33,2.18,3.5,3.5,0,0,0,1.8.4l1.24-.17a4.62,4.62,0,0,0,2.06-1.2c.24-.31.49-.62.73-.94.05-.09.09-.18.13-.27h1.13a1.64,1.64,0,0,0,1.05-.37,1.3,1.3,0,0,0,.87-.92.432.432,0,0,0,0-.07,1.149,1.149,0,0,0,0-.38,1.259,1.259,0,0,0,0-.29Z"/><path class="aa" d="M690.53,205.76a.433.433,0,0,0,0-.07,1.29,1.29,0,0,0-.86-.91,1.64,1.64,0,0,0-1-.37h-.82a5,5,0,0,0-.21-.48,3.52,3.52,0,0,0-1-1.5,5.13,5.13,0,0,0-3.3-1.37l-1.24.17a4.62,4.62,0,0,0-2.06,1.2l-.73.94a4.815,4.815,0,0,0-.45,1h-1.37a1.73,1.73,0,0,0,0,3.46h1.72a3.32,3.32,0,0,0,.83,1.21,3.45,3.45,0,0,0,1.5,1,3.5,3.5,0,0,0,1.8.4l1.24-.17a4.62,4.62,0,0,0,2.06-1.2l.73-.94c0-.09.09-.18.13-.27h1.13a1.66,1.66,0,0,0,1-.37,1.32,1.32,0,0,0,.87-.92.151.151,0,0,0,0-.07,1.141,1.141,0,0,0,0-.38,1.261,1.261,0,0,0,.03-.36Z"/><path class="r" d="M471,220.4a5.379,5.379,0,0,0-.28-.7l-.3-.38a1.42,1.42,0,0,0-.6-.39.94.94,0,0,0-.47-.12,1.33,1.33,0,0,0-.74,0l-.45.19-.38.29a2.19,2.19,0,0,0-.55,1.32v.78a.5.5,0,0,0,0,.17,2,2,0,0,0,0,.26,1.29,1.29,0,0,0,.33.62,1.26,1.26,0,0,0,.5.47,1.87,1.87,0,0,0,.92.25,1.84,1.84,0,0,0,1-.29,2,2,0,0,0,.6-.39l.3-.39a1.92,1.92,0,0,0,.26-1,4.994,4.994,0,0,0-.14-.69Z"/><path class="r" d="M476.77,220.4a5.393,5.393,0,0,0-.28-.7l-.3-.38a1.42,1.42,0,0,0-.6-.39.94.94,0,0,0-.47-.12,1.33,1.33,0,0,0-.74,0l-.45.19-.38.29a2.19,2.19,0,0,0-.55,1.32v.78a.5.5,0,0,0,0,.17,2,2,0,0,0,0,.26,1.38,1.38,0,0,0,.33.62,1.26,1.26,0,0,0,.5.47,1.87,1.87,0,0,0,.92.25,1.84,1.84,0,0,0,1-.29,2,2,0,0,0,.6-.39l.3-.39a1.92,1.92,0,0,0,.26-1,5,5,0,0,0-.14-.69Z"/><path class="r" d="M482.53,220.4a5.374,5.374,0,0,0-.28-.7l-.3-.38a1.36,1.36,0,0,0-.6-.39.94.94,0,0,0-.47-.12,1.33,1.33,0,0,0-.74,0l-.45.19-.38.29a1.37,1.37,0,0,0-.38.6,1.47,1.47,0,0,0-.17.72v.78a.5.5,0,0,0,0,.17,2,2,0,0,0,0,.26,1.38,1.38,0,0,0,.33.62,1.26,1.26,0,0,0,.5.47,1.87,1.87,0,0,0,.92.25,1.84,1.84,0,0,0,1-.29,2,2,0,0,0,.6-.39l.3-.39a1.919,1.919,0,0,0,.26-1,4.994,4.994,0,0,0-.14-.69Z"/><path class="ab" d="M563.62,147.29c-.32-3.92-9,1.53-9.56,3a20.808,20.808,0,0,1-.41,5.08,11,11,0,0,0,5,2.69,16.49,16.49,0,0,0,7.13-.06,85.021,85.021,0,0,1-2.16-10.71Z"/><circle class="ac" cx="8.12" cy="8.12" r="8.12" transform="translate(563.11 106.03)"/><path class="ac" d="M541.33,125.72s1.23-13.17,17-14.77,22.88,10.46,22,20.8-7.63,21.78-16.86,20.3S541.33,125.72,541.33,125.72Z"/><path class="ad" d="M567.9,130.27s10-3.15,12.19-4.92c1.84-1.48.61-3.2-.37-3.08s-11.94,7.14-14.89,7.63S567.9,130.27,567.9,130.27Z"/><path class="f" d="M568.64,133.22s4.31-.86,5.17,2.22a5.46,5.46,0,0,1-4.68,6.64s-1.35,13.13-13.82,13c-12.8-.09-15.95-18.09-14.23-22.89s8.12-1.35,8.37-1.35,13.78-.5,14.15-.62,3.44,8.74,2.34,14.15C565.94,144.42,568.52,140.85,568.64,133.22Z"/><path class="ad" d="M541.33,125.72s-7.14,3.94-1.73,6.64,22.4.86,28.3-2.09C567.9,130.27,552.52,123,541.33,125.72Z"/><path class="ae" d="M569.39,132.75c-.48-.47-1.18,0-1.52.42a7.4,7.4,0,0,0-1.32,3.5,19.131,19.131,0,0,0-.32,2.51c0,.59-.1,1.78.5,2.15a.11.11,0,0,0,.11,0c.5-.3.55-1.25.62-1.76.09-.75.17-1.5.31-2.24A6.48,6.48,0,0,1,569,134C569.24,133.68,569.81,133.15,569.39,132.75Z"/><path class="ae" d="M569.41,142.86Z"/><path class="ae" d="M570.78,143.09a.44.44,0,0,0-.16-.4.6.6,0,0,0-.37-.09h-.11a.84.84,0,0,0-.38.11l-.27.15h-.11l-.28.08-.28.06h-.06a.85.85,0,0,1-.16,0h-.61a.44.44,0,0,0-.38.66,1.73,1.73,0,0,0,1.33.61,2.12,2.12,0,0,0,.71-.06,2.18,2.18,0,0,0,.65-.27,1.18,1.18,0,0,0,.4-.37,1.3,1.3,0,0,0,.08-.17c0-.07,0-.28,0-.15S570.78,143.14,570.78,143.09Z"/><path class="ae" d="M568.79,143Z"/><path class="aa" d="M541.78,143.64c.48-2.76,4-1.34,5.49-1.88s3-2.25,4.76-1.08,6.48,2.34,9,1.35,4.19-3,6.24-1.89,2.19,14-11,15.48C546,156.82,541.45,145.53,541.78,143.64Z"/><path class="ae" d="M556.51,144.48c-.69-.24-1.44.28-2.07.5a9.1,9.1,0,0,1-2.05.47,8.51,8.51,0,0,1-2.08,0c-.36-.05-.71-.13-1.06-.21a5.115,5.115,0,0,0-.53-.13h-.47a.13.13,0,0,0-.12.21c.12.12.17.25.31.37a2.569,2.569,0,0,0,.44.29,7.05,7.05,0,0,0,1.1.45,8.26,8.26,0,0,0,2.47.37,7.4,7.4,0,0,0,2.42-.44c.74-.25,1.79-.67,1.84-1.57A.28.28,0,0,0,556.51,144.48Z"/><path class="ae" d="M559.46,149.64c-.44.14-.86.06-1.29.2s-.88.36-1.32.52a10.29,10.29,0,0,1-2.67.58,9.639,9.639,0,0,1-2.68-.19,19.089,19.089,0,0,0-2.63-.66.2.2,0,0,0-.17.29,4.36,4.36,0,0,0,2.47,1.59,10.05,10.05,0,0,0,3.09.45,9.54,9.54,0,0,0,3.09-.52,5.16,5.16,0,0,0,1.47-.72,4.94,4.94,0,0,0,.87-1.24C559.79,149.8,559.62,149.59,559.46,149.64Z"/><path class="af" d="M547.58,134.87a1.09,1.09,0,0,0-.62-.42l-.41-.09a4.48,4.48,0,0,0-1,0,3.33,3.33,0,0,0-1,.26,2.079,2.079,0,0,0-.36.2,1.686,1.686,0,0,0-.25.2l-.09.11a.241.241,0,0,0-.06.11h0c-.15.29.06.74.41.69h.27l.19-.06.33-.09.39-.09h.85a2.57,2.57,0,0,0,1,.15.64.64,0,0,0,.35-.97Z"/><path class="af" d="M543.78,135.24Z"/><path class="af" d="M546.63,138.26a1,1,0,0,0-.4-.52l-.21-.09a.7.7,0,0,0-.35,0,.43.43,0,0,0-.22.06.75.75,0,0,0-.28.18.91.91,0,0,0-.26.62,7.165,7.165,0,0,0,0,.93,1,1,0,0,0,0,.25.94.94,0,0,0,.26.62l.18.14a.64.64,0,0,0,.33.1.33.33,0,0,0,.24,0,.63.63,0,0,0,.32-.1.94.94,0,0,0,.41-.53,2.859,2.859,0,0,0,.12-.82,2.53,2.53,0,0,0-.14-.84Z"/><path class="af" d="M557.07,137.76a.91.91,0,0,0-.4-.52l-.21-.09a.69.69,0,0,0-.35,0,.43.43,0,0,0-.22.06.75.75,0,0,0-.28.18.9.9,0,0,0-.25.62,5.812,5.812,0,0,0,0,.93.691.691,0,0,0,0,.25.85.85,0,0,0,.26.62l.17.14a.7.7,0,0,0,.33.1.49.49,0,0,0,.24,0,.64.64,0,0,0,.33-.1,1,1,0,0,0,.4-.53,2.3,2.3,0,0,0,.12-.82,2.529,2.529,0,0,0-.14-.84Z"/><path class="af" d="M556.74,135.42Z"/><path class="af" d="M556.31,135.31Z"/><path class="af" d="M555.88,135.31Z"/><path class="af" d="M557.73,135.85Z"/><path class="af" d="M558.19,135.1a1.06,1.06,0,0,0-.44-.54,2.79,2.79,0,0,0-1.56-.48,2.24,2.24,0,0,0-1.76.69.54.54,0,0,0-.13.51v.06h0a.32.32,0,0,0,.15.22.56.56,0,0,0,.5.05l.12-.05h0l.17-.06h.16l.3-.09h.59l.2.05h.13a2.321,2.321,0,0,1,.31.19h0l.07.06a.76.76,0,0,0,.3.14.72.72,0,0,0,.29,0,.45.45,0,0,0,.36-.22.27.27,0,0,0,.06-.12s0-.25,0-.05A.69.69,0,0,0,558.19,135.1Z"/><path class="af" d="M557.8,135.83Z"/><path class="ab" d="M571.93,135.39a.66.66,0,0,0-.55-.67,1.16,1.16,0,0,0-.85.19,2.52,2.52,0,0,0-.93,1.39,3.45,3.45,0,0,0,.69,3.25.53.53,0,0,0,.72,0,1.89,1.89,0,0,0-.11-2.72.66.66,0,0,0-.38-.14,2.15,2.15,0,0,1,.4-.87c0,.05.05,0,.05,0h0l.12-.07h.1a.42.42,0,0,0,.74-.36Z"/><path class="ab" d="M571.24,135.69Z"/><path class="ag" d="M565.75,161.31c-1.64,2.47-4.73,3.23-7.51,3.33-1.37.05-3,.19-4.25-.58a5,5,0,0,1-1.39-1.62,3.58,3.58,0,0,0-1.27-1.5.15.15,0,0,0-.22.13,4,4,0,0,0,.8,2.25,5.31,5.31,0,0,0,1.51,1.72c1.37.94,3.23.91,4.82.88,3.32-.06,6.78-1,8.73-3.9C567.48,161.27,566.25,160.55,565.75,161.31Z"/><path class="ah" d="M565.31,161.06c-1.7,2.49-4.82,3-7.62,3.1-1.68.07-3.3,0-4.34-1.48-.36-.53-1.73-3.17-2.6-2-.36.49-.06,1.31.15,1.8a8.522,8.522,0,0,0,1.32,2.13,5.41,5.41,0,0,0,3.72,1.75,15.09,15.09,0,0,0,8.33-1.31,8.658,8.658,0,0,0,1.85-1.29,5,5,0,0,0,1.4-1.74c.44-1.26-1.34-2.06-2.13-1.07-.39.49.31,1.21.71.7.19-.24.5-.21.44.11s-.53.7-.74.92a7.62,7.62,0,0,1-1.81,1.38,11.28,11.28,0,0,1-4.48,1.28,12.691,12.691,0,0,1-4.76-.22,4,4,0,0,1-2.1-1.58c-.22-.32-.42-.66-.61-1s-.61-1.05-.42-1.36l-.44.25c.28,0,.64.68.75.86s.4.65.61,1a4.15,4.15,0,0,0,1.7,1.49,9.61,9.61,0,0,0,4.43.37c2.87-.18,5.81-1.08,7.51-3.56C566.54,161,565.67,160.53,565.31,161.06Z"/><path class="ah" d="M541.72,196.42a14.057,14.057,0,0,0-.37-2.81c-.44-2-1.17-3.89-1.8-5.82-1.15-3.5-1.78-7.09-.33-10.6.11-.26-.28-.38-.43-.18-2.07,2.89-1.33,6.93-.4,10.11.56,1.92,1.26,3.78,1.71,5.73a18.063,18.063,0,0,1,.44,3.11,9.3,9.3,0,0,0,.17,2.84.23.23,0,0,0,.37.1,3.28,3.28,0,0,0,.64-2.48Z"/><path class="ah" d="M575.2,207.7c-.06-1.11-.11-2.22-.16-3.33-.11-2.21-.27-4.43-.26-6.64,0-4.23,1-8.41.75-12.65a14.9,14.9,0,0,0-1.51-6.3.222.222,0,1,0-.41.17c1.22,3.92,1.08,7.87.65,11.91-.22,2.11-.49,4.23-.53,6.36s.11,4.26.21,6.38c0,1.24.11,2.48.17,3.72,0,.59.06,1.19.08,1.79a3.13,3.13,0,0,0,.28,1.6.38.38,0,0,0,.65,0,2.21,2.21,0,0,0,.16-1.22C575.25,208.89,575.23,208.3,575.2,207.7Z"/><path class="ah" d="M567.73,190.56a8.64,8.64,0,0,0-3.15.95,8.06,8.06,0,0,1-3.09.42c-2.22-.08-4.1-1.42-6.16-2.07a7.249,7.249,0,0,0-3.33-.28c-1.24.2-2.31.86-3.52,1.15a8.837,8.837,0,0,1-3.88-.48c-.58-.14-1.92-.34-2.1.54-.47,2.25,4,3.33,5.57,3.4s2.76-.72,4.23-1a4.86,4.86,0,0,1,3.15.83c2.35,1.31,4.37,2.8,7.18,2.84,2.49,0,6.34-1.07,7-3.82a2,2,0,0,0-1.9-2.48Z"/><path class="ag" d="M567.8,129.62a87.831,87.831,0,0,0-13.16-4.07,44.78,44.78,0,0,0-6.63-.9,29.321,29.321,0,0,0-3.38,0,12,12,0,0,0-3.21.44.26.26,0,0,0,.07.51c1.12.06,2.26-.13,3.38-.14a24.771,24.771,0,0,1,3.14.12,43.3,43.3,0,0,1,6.69,1.14c4.37,1.06,8.53,2.62,12.77,4.09C568.23,131.07,568.53,129.9,567.8,129.62Z"/><path class="ah" d="M508.06,170.7a2.51,2.51,0,0,0-1.7.88,9.7,9.7,0,0,0-2.28,3,4.851,4.851,0,0,0-.6,1.91.39.39,0,0,0,.73.19,7.134,7.134,0,0,0,.33-.85,7.678,7.678,0,0,1,.34-.78,8.406,8.406,0,0,1,.92-1.49,8.938,8.938,0,0,1,1.2-1.26,4.871,4.871,0,0,0,1.3-1.22.28.28,0,0,0-.24-.38Z"/><circle class="ai" cx="7.99" cy="7.99" r="7.99" transform="translate(446.38 362.11)"/><circle class="ai" cx="7.99" cy="7.99" r="7.99" transform="translate(524.44 362.11)"/><path class="aj" d="M444.18,311.4s-10.58,11.05-10.58,27.51,5.88,27.28,28.92,27.28h78.53c3.76,0,5.17-6.82,0-6.82H463.46c-13.17,0-23.28-9.64-22.57-21.4s12-26.8,11.28-26.57S444.18,311.4,444.18,311.4Z"/><path class="aj" d="M433.84,227.94l-.13.13c-5.84-3.95-18.52-12.6-21-14.94-2.09-1.94-4.71,1.64-3.06,3.05s18.1,15.29,21.16,18.34,6.35,76.65,8.23,78.77,103.21,3.76,105.56,3.29,18.4-86.78,18.31-87.46S435.25,226.76,433.84,227.94Zm99.24,9.25a15.747,15.747,0,0,0,.09-2.56l21.75.36-1.45,7.38a2.841,2.841,0,0,0-.67-.11c-6.73-.23-13.5,0-20.24,0a4.982,4.982,0,0,1,.07-.54C532.81,240.23,533,238.71,533.08,237.19Zm-4.57-2.63a42.34,42.34,0,0,0-.82,5.49c-.11.75-.21,1.5-.31,2.25H503v-1.93a26.911,26.911,0,0,0-.34-6.31Zm-30.9-.54a27,27,0,0,0-.21,5.13c0,1.08,0,2.15-.08,3.23l-20.65.17c-.23-3-.48-6-.81-8.93Zm-26.56-.49h0c0,3,.14,6,.3,9q-5,0-9.92.06h-6.95c-.12-.88-.23-1.77-.36-2.65-.22-1.52-.44-3-.65-4.54-.12-.79-.21-1.56-.36-2.31,5.25.19,11.36.31,17.94.44ZM447.71,233a48.124,48.124,0,0,0,.52,6.48c.09,1,.2,2.1.3,3.15-2.16,0-4.33,0-6.49.06a31.177,31.177,0,0,0-4,.17L437,232.74C439,232.82,442.75,232.93,447.71,233Zm-7.54,29.62-1.7-15.76c.85,0,1.7,0,2.55.08,2,.06,4.08.07,6.12.08H449v.34q.81,7.62,1.64,15.24H440.42Zm.58,5.35h10.51q1.13,10.25,2.3,20.48h-1.67c-3,0-5.95-.06-8.91.2Zm4.37,40.57-1.66-15.36c2.29.16,4.59.15,6.9.16h3.76l.09.78q.51,4.32,1,8.64c.18,1.53.35,3.05.53,4.58.05.45.11.91.19,1.36Zm10.16-59.65c-.08-.62-.15-1.24-.23-1.85h16.58c.35,5.18.81,10.36,1.26,15.53H457q-.85-6.79-1.72-13.64Zm3.87,31.27q-.73-6.09-1.49-12.19h15.72q.9,10.1,2,20.19-6.1.14-12.21.22h-3Zm3.33,28.68a27.539,27.539,0,0,0-.54-5.29l-.93-7.88-.27-2.25c5.05,0,10.11.14,15.17.25l.15,1.47q.48,4.31,1,8.6c.17,1.43.35,2.86.52,4.3.05.35.08.71.12,1.07Zm14.81-58c-.09-1.23-.19-2.47-.28-3.7h4.33q7.91.09,15.8.14c-.19,5.07-.47,10.14-.52,15.21v.12H478.29q-.52-5.87-1-11.78Zm2.79,30.69q-.7-6.75-1.31-13.5h17.88c.13,6.66.59,13.32,1,20H480.8c-.24-2.13-.49-4.32-.72-6.51Zm18.37,27.21v.78l-15.07-.26a7.272,7.272,0,0,0-.13-.92l-.48-3.79q-.47-3.8-.92-7.58c-.13-1-.25-2.1-.38-3.14,5.52.1,11,.12,16.55.12.15,2.74.28,5.48.36,8.22,0,1.51.07,3,.07,4.54.01.67.01,1.34,0,2.02Zm22.13-11.58a77.386,77.386,0,0,1-.39,8.06c-.11,1.16-.29,2.31-.51,3.45-.08.4-.18.81-.25,1.21l-15-.26v-5.14q-.07-3.92-.29-7.83c0-.89-.11-1.77-.16-2.66h16.76Zm1-16a66.006,66.006,0,0,0-.74,6.83H503.53c-.17-2.44-.33-4.87-.48-7.31-.27-4.22-.49-8.44-.58-12.67h21.44c-.71,4.42-1.58,8.77-2.3,13.16ZM508.43,262.6h-6c0-4.45.24-8.88.41-13.32l.06-2q11.89.07,23.81.09l-.15,1.12c-.62,4.69-1.23,9.37-1.86,14.06Zm31.65,47.62L525.23,310a2.009,2.009,0,0,0,0-.26,58.63,58.63,0,0,0,.86-8c.12-2.58.12-5.16.13-7.75,5.69,0,11.38.09,17.06-.05Zm4.36-22.17h-.13c-6-.18-12-.09-17.94-.06,0-.76.08-1.52.14-2.28.41-5.27,1.64-10.45,2.4-15.67.1-.67.19-1.33.28-2h16.58l2.64-.12Zm4.66-25.29-2.56-.12c-1.87-.08-3.75,0-5.63,0H530c.49-3.77,1-7.53,1.44-11.29.17-1.28.33-2.56.5-3.84,6.85.07,13.72.22,20.56,0l-3,15.32a3,3,0,0,0-.37-.06Z"/><path class="ac" d="M405.62,102.63c-23.6-4.73-31.27,7.28-32.44,18.8s-9.41,12.7-8,24,13.64,15.75,26.1,18.1,22.1-5.17,25.39-9.4-2.58-11.29.47-21.63S417.38,105,405.62,102.63Z"/><path class="ak" d="M348.57,363.21c-2.35,1.56-2.51,7.21-1.41,8.46s15.36,2.82,17.71,2.51,2-2.82.16-4.08-10.35-4.39-10.35-4.39-.63-3.44-1.25-3.6S348.57,363.21,348.57,363.21Z"/><path class="al" d="M356.88,337.19s-8.62,23.51-8.31,26,4.7,3,6.11,2.5,15.05-22.57,15.05-22.57Z"/><path class="ak" d="M406.15,368.93c-2.31,1.64-2.29,7.28-1.15,8.5s15.44,2.35,17.78,2,2-2.88,0-4.08-10.48-4.07-10.48-4.07-.73-3.43-1.36-3.57S406.15,368.93,406.15,368.93Z"/><path class="al" d="M404.26,343.86s.11,25,1.28,27.28,5.44,1.15,6.6.22,6.24-26.4,6.24-26.4Z"/><path class="am" d="M363.62,226.37a112.57,112.57,0,0,0-3.14,41.54c2.67,22.57,3.61,30.25,3.29,34.17s-8,32.6-8.3,34.95,12.38,8.62,14.26,8,15-24.46,17.08-36.37,5.49-47.8,5.49-47.8,6.74,34.48,8.15,44.2,3.29,38.55,3.29,41.06,12.85,4.23,14.26,2.82,4.24-35.73,3.61-45.76S409.85,229,409.85,229l-27-7.21Z"/><path class="ak" d="M406.56,162.58c4.86,2.51,5.65,5,6.27,6.74s5,19.12,9.41,23.2,15,4.07,15,4.07-1.09,11.91-1.56,11.76-10.66-1.57-15.52-3-9.88-5.49-9.88-5.49-.78,25.08,1.26,31.19c0,0-22.57,12.07-50.16-4.07,0,0,3-34.48,3.29-40.91s-4.54-4.55-4.23-10.58,8.46-17.32,17.87-18.1,17.55,4.39,17.55,4.39Z"/><path class="an" d="M458.44,177.78l-17.39-2.35-4.55,7.53,3.45,4.7,11.75.78,4.86-1.57.63-3.76Z"/><path class="ao" d="M454.21,185.78l4.23-8,.63,8.47Z"/><path class="ap" d="M449.78,217.78l5.84-1.59,3.45-29.94-4.86-.47Z"/><path class="aq" d="M436.5,183.23l-3.92,32.13s17.17,3.18,17.24,2.67c.47-3.37,4.39-32,4.39-32Z"/><path class="al" d="M403.43,206.62a13.69,13.69,0,0,1,7.68,1.41c3.35,2,6.71,5.93,6.58,7.21s-.63,2.22-1.88,2.36c0,0-.83,2.17-2.35,1.56,0,0-.76,1.75-2.51.32s-4.44-4-6-4.21a13.079,13.079,0,0,0-4,.6S400.61,206.15,403.43,206.62Z"/><path class="al" d="M389.87,145.18s-.24,11.29-11.52,12.23c0,0,11.52,21.63,28.21,5.17,0,0-9.4-3.76-5.64-15.05a52.8,52.8,0,0,0-5.64-3.29C394.34,144,389.87,145.18,389.87,145.18Z"/><path class="ak" d="M360.48,175.51c2.5-7.84,11.52-8.23,13.17-1.88s0,25.39,4.23,28,22.71.92,24.84,3.76c.71.94,1.94,9.07-.7,11.28s-24.61.95-32.13-1.41S357,186.56,360.48,175.51Z"/><path class="al" d="M458.91,196.12c-1.18-1.84-5.64-1.72-6.42-1.25a1.43,1.43,0,0,0-.32,2.19s-2.19,1.73-1.09,3a4.43,4.43,0,0,0,.47,3,1.28,1.28,0,0,0,.62,2.19c1.91.78,3.45,1.1,5.18.16S460.32,198.32,458.91,196.12Z"/><path class="ar" d="M400,152.22a16.229,16.229,0,0,1,.88-4.69,52.8,52.8,0,0,0-5.64-3.29c-.94-.23-5.41.94-5.41.94a14.26,14.26,0,0,1-3.7,8.82,5,5,0,0,0,1,.36,8.86,8.86,0,0,0,2.57.17,28.549,28.549,0,0,0,7.13-1A15.211,15.211,0,0,0,400,152.22Z"/><path class="al" d="M381.41,125.67a2.94,2.94,0,0,0-4,2.58c-.71,3.76,2.11,6.59,4,6.59,0,0,4.7,16.22,15.51,15.51s15.29-14.57,16-22.33c0,0-8-5.17-9.17-12.46C403.74,115.56,392.69,125.9,381.41,125.67Z"/><path class="ar" d="M381.32,127.33a1.31,1.31,0,0,0-1.58,0,.41.41,0,0,0,.1.73,4.54,4.54,0,0,0,.63,0h.07a.429.429,0,0,0,0,.07h0a.249.249,0,0,1,0,.07.2.2,0,0,1,0,.11.442.442,0,0,1,0,.1h0a2.183,2.183,0,0,1,0,.25,5.359,5.359,0,0,1-.06.69,1.17,1.17,0,0,0-.25.07,1.48,1.48,0,0,0,0,2.57.63.63,0,0,0,.91-.37,10.8,10.8,0,0,0,.41-1.7,5.61,5.61,0,0,0,.11-1.53,1.76,1.76,0,0,0-.34-1.06Z"/><path class="ar" d="M380.54,128.13Z"/><path class="as" d="M417.52,128.24c-.5-.65-1.71-.62-2.43-.88a13.26,13.26,0,0,1-2.13-1.07,16.369,16.369,0,0,1-3.66-3,17.179,17.179,0,0,1-2.74-3.87,16.564,16.564,0,0,1-.9-2.13,10.76,10.76,0,0,0-.68-2,4.484,4.484,0,0,0,.19-.44.37.37,0,0,0-.45-.46,4,4,0,0,0-1.19.54c-.41.3-.79.65-1.19,1-.83.65-1.69,1.25-2.58,1.82a58,58,0,0,1-5.3,2.93c-3.68,1.83-7.62,3.81-11.78,4.13a12.6,12.6,0,0,1-3.3-.13,10.69,10.69,0,0,1-1.66-.44,16.444,16.444,0,0,0-1.59-.61.43.43,0,0,0-.41.71,6.26,6.26,0,0,0,2.63,1.24,14.21,14.21,0,0,0,3,.5,18.22,18.22,0,0,0,6.47-.88,45,45,0,0,0,6.17-2.6c2-1,4-2,5.85-3.11a35,35,0,0,0,3-2c.45-.34.91-.69,1.33-1.06a12.786,12.786,0,0,0,.33,1.26,17.939,17.939,0,0,0,.94,2.47,18.128,18.128,0,0,0,2.9,4.45,17.42,17.42,0,0,0,4.12,3.38,13.2,13.2,0,0,0,2.61,1.22c.75.23,2.12.49,2.53-.44a.41.41,0,0,0-.08-.53Z"/><path class="at" d="M383.7,129.53a13,13,0,0,0-.72-3.61.6.6,0,0,0-.72-.41.74.74,0,0,0-.39.23.36.36,0,0,0-.07.1c-.05.13-.05.14,0,0a.26.26,0,0,0,0,.35c-.07-.07,0,.07.05.12a.19.19,0,0,0,.07.08c.11.51.26,1,.36,1.53a15.089,15.089,0,0,1,.25,1.64c.05.57.08,1.14.11,1.7a3.319,3.319,0,0,0,.08.89,1.53,1.53,0,0,0,.19.76.26.26,0,0,0,.42.05,2.84,2.84,0,0,0,.44-1.7A11.492,11.492,0,0,0,383.7,129.53Z"/><path class="at" d="M383,134.81a.15.15,0,0,0-.25-.11.491.491,0,0,1-.13.12h-.06a1.57,1.57,0,0,0-.56.33c.09-.07,0,0-.06,0l-.12.08-.15.08h-.06l-.28.09h-.65a.39.39,0,0,0-.23.09.27.27,0,0,0-.1.37.38.38,0,0,0,.16.19l.2.07a2,2,0,0,0,.41.08,2.091,2.091,0,0,0,.75-.09,2.75,2.75,0,0,0,.66-.34,1.37,1.37,0,0,0,.36-.36,1.152,1.152,0,0,0,.1-.33Q383,134.945,383,134.81Z"/><path class="aa" d="M382.08,132.79c.65-2.66,5.93.6,11.32.28s7-2.37,8.94-.29,6,1.77,7.52,3.8-2,14.72-13.07,13.95S380.76,138.29,382.08,132.79Z"/><path class="at" d="M403.07,138.22a.25.25,0,0,0-.39-.05s.08,0,0,0a1.692,1.692,0,0,1-.23,0,4.279,4.279,0,0,0-.62,0c-.39,0-.77.06-1.17.06a11.245,11.245,0,0,1-2.309-.24,11.39,11.39,0,0,1-2.191-.7c-.35-.16-.7-.34-1.05-.52a2.37,2.37,0,0,0-.91-.39.05.05,0,0,0-.05.07,2,2,0,0,0,.78.9,8.756,8.756,0,0,0,1.14.77,9.82,9.82,0,0,0,5.42,1.26,2.83,2.83,0,0,0,1.34-.3C403.06,138.91,403.28,138.49,403.07,138.22Z"/><path class="at" d="M403.69,144.78a4.11,4.11,0,0,0-1.4-.12c-.58,0-1.17-.06-1.75-.1a24.738,24.738,0,0,1-3.93-.52,13.878,13.878,0,0,1-3.28-1.15,19,19,0,0,1-2.77-1.83c-.15-.11-.33.1-.25.25,1.22,2.17,3.89,3.39,6.19,4a23.808,23.808,0,0,0,4.28.66c1,.07,2.73.24,3-1a.17.17,0,0,0-.09-.19Z"/><path class="au" d="M407,162.9a.38.38,0,0,0-.37-.29c-1,.12-1.55,1.2-2.23,1.87a12.269,12.269,0,0,1-2.48,1.82,13.5,13.5,0,0,1-6.05,1.66c-4.78.17-9.29-2.09-12.87-5.11a17.559,17.559,0,0,1-2.83-2.82,17.35,17.35,0,0,1-1-1.55c-.26-.43-.45-1-1-1.17a.1.1,0,0,0-.1,0c-.62.71.36,2.24.76,2.88a17.418,17.418,0,0,0,2.38,3,21.79,21.79,0,0,0,6.39,4.53,16.8,16.8,0,0,0,14.23.45,13.08,13.08,0,0,0,3.32-2.16C405.93,165.31,407.42,164.08,407,162.9Z"/><path class="au" d="M403.85,205.74a3.45,3.45,0,0,0-1.15-1.61,6.519,6.519,0,0,0-2.43-.88,83.8,83.8,0,0,0-10.89-1.79q-2.83-.27-5.67-.34c-1.66-.05-3.69.25-5.22-.53a5,5,0,0,1-2.25-3.77,47.53,47.53,0,0,1-.49-5.46l-.48-6.61a30,30,0,0,0-.84-6.41c-.07-.23-.47-.28-.51,0a25,25,0,0,0,0,5.4c.13,1.86.27,3.72.4,5.59s.25,3.67.39,5.5a14.51,14.51,0,0,0,.7,3.88,5.43,5.43,0,0,0,2.17,2.85,8.26,8.26,0,0,0,4.41.84,81.09,81.09,0,0,1,10.9.81q2.69.39,5.34.95c.81.17,1.61.35,2.41.56a2.39,2.39,0,0,1,1.92,1.36,10.6,10.6,0,0,1-.61,8.92,2.48,2.48,0,0,1-1.73,1.51,18.111,18.111,0,0,1-2.66.19c-1.85.1-3.71.17-5.56.2-3.71.07-7.42,0-11.12-.16-2-.09-4-.19-6-.34a15.65,15.65,0,0,1-4.75-.93,6.66,6.66,0,0,1-3.49-3.4c-.91-1.78-1.71-3.6-2.63-5.38-.1-.21-.47-.06-.38.17.63,1.73,1.32,3.44,2,5.14a7.91,7.91,0,0,0,2.63,3.56c2.48,1.78,5.87,1.89,8.79,2.16,3.87.35,7.75.5,11.62.52,1.86,0,3.71,0,5.57-.08s3.81-.07,5.69-.28a3.75,3.75,0,0,0,2.05-.76,5.891,5.891,0,0,0,1.37-2,12.621,12.621,0,0,0,1.18-4.66,11.289,11.289,0,0,0-.68-4.72Z"/><path class="au" d="M411.77,183.6c-.48-1.73-1.31-3.72-2.84-4.76-.2-.13-.42.12-.32.31.47.86,1,1.65,1.42,2.54a12.372,12.372,0,0,1,.84,2.67,19.718,19.718,0,0,1,.21,5.74c-.21,2.27-.72,4.49-1.12,6.73-.2,1.1-.37,2.2-.49,3.3a9.526,9.526,0,0,0-.1,1.69,15.244,15.244,0,0,0,.31,1.77.25.25,0,0,0,.48,0c.08-.63.28-1.23.37-1.85s.12-1.07.18-1.61c.14-1.24.37-2.46.59-3.68a60.574,60.574,0,0,0,1-6.95A18.29,18.29,0,0,0,411.77,183.6Z"/><path class="au" d="M410.76,230.17a7.85,7.85,0,0,0-2.11,1.05,18.14,18.14,0,0,1-2.23,1.05,23.071,23.071,0,0,1-4.7,1.23c-1.76.28-3.55.37-5.33.49s-3.61.24-5.42.28a53.3,53.3,0,0,1-19.52-3,73.251,73.251,0,0,1-9.9-4.66.29.29,0,0,0-.29.5,38.5,38.5,0,0,0,8.74,4.8,50.392,50.392,0,0,0,9.56,2.8c7.14,1.33,14.43,1,21.62.21a23.69,23.69,0,0,0,5.53-1.17,19.33,19.33,0,0,0,2.5-1.13,4.93,4.93,0,0,0,2.15-1.66.54.54,0,0,0-.6-.79Z"/><path class="ar" d="M457.13,198.56a1,1,0,0,0-.55-.34,10.857,10.857,0,0,0-1.11-.33,8,8,0,0,0-1.18-.16,2.17,2.17,0,0,0-1.12.22.18.18,0,0,0,0,.32,6.83,6.83,0,0,0,1.83.57c.31.07.62.15.93.25l.64.22a.39.39,0,0,0,.58-.1.59.59,0,0,0-.02-.65Z"/><path class="ar" d="M456.71,201.51a2.28,2.28,0,0,0-.9-.06,8.78,8.78,0,0,1-1.77-.07,5.063,5.063,0,0,0-.55,0h-.42a.18.18,0,0,0-.12.3c.06,0,.14.15.22.21a2.483,2.483,0,0,0,.4.26,3.631,3.631,0,0,0,.85.26,4.53,4.53,0,0,0,1.87,0A1.06,1.06,0,0,0,457,202C457.11,201.73,456.93,201.59,456.71,201.51Z"/><path class="ar" d="M453.9,205Z"/><path class="av" d="M377.14,236a5.9,5.9,0,0,0-.7.38,3.7,3.7,0,0,0-.54.71c-.36.5-.73,1-1.12,1.44a24.273,24.273,0,0,1-2.57,2.6,20.59,20.59,0,0,1-2.95,2.15,11.812,11.812,0,0,1-1.84.94c-.46.19-.95.34-1.41.53a62.291,62.291,0,0,1,1.78-10.31.161.161,0,1,0-.31-.09c-2.34,6.2-2.69,13.15-2.27,19.7a88.878,88.878,0,0,0,1.24,9.88c.61,3.41,1.48,6.76,2.15,10.15a35.7,35.7,0,0,1,.48,10.62c-.36,3.51-.75,7-1.21,10.53-.93,6.91-2.21,13.77-3.76,20.57q-1.31,5.73-2.92,11.38c-.55,1.89-1.12,3.76-1.69,5.63a25.529,25.529,0,0,0-1.45,5.52.3.3,0,0,0,.55.15,19.451,19.451,0,0,0,1.92-4.88q.765-2.445,1.47-4.93,1.39-5,2.62-10.07c1.62-6.79,2.89-13.66,3.87-20.57.48-3.36.9-6.73,1.21-10.1a52,52,0,0,0,.21-10.8c-.4-3.4-1.34-6.69-2-10a95.511,95.511,0,0,1-1.64-10.09,68.08,68.08,0,0,1-.29-11.33v-.44a5.82,5.82,0,0,0,3.42-.95,21.571,21.571,0,0,0,3.25-2.2,23.235,23.235,0,0,0,2.78-2.65c.43-.48.83-1,1.22-1.49a6.992,6.992,0,0,0,.53-.77,2.34,2.34,0,0,0,.18-1A.194.194,0,0,0,377.14,236Z"/><path class="av" d="M393,253.45c0-.76,0-1.53-.06-2.29l-.14-4.85-.14-4.73c0-.76,0-1.53-.07-2.29a2.782,2.782,0,0,0-.34-1.85.09.09,0,0,0-.13,0,2.73,2.73,0,0,0-.26,1.72c0,.77,0,1.53,0,2.3l.07,4.85.06,4.62-.26-.21a5.519,5.519,0,0,1-1-1.53,20.456,20.456,0,0,1-1.1-3.95c-.28-1.29-.51-2.6-.68-3.91-.08-.64-.16-1.28-.22-1.93a14.15,14.15,0,0,0-.2-2,.54.54,0,0,0-.38-.38.941.941,0,0,0-.29,0,.56.56,0,0,0-.39.52,9.941,9.941,0,0,0,.11,2.18c.07.7.15,1.4.25,2.09.22,1.44.5,2.87.85,4.28a15,15,0,0,0,1.3,3.88c.4.69,1.16,1.8,2.06,1.89v1.43a5.07,5.07,0,0,0,.27,2.19.29.29,0,0,0,.5,0,4.65,4.65,0,0,0,.19-2.03Z"/><path class="av" d="M410.54,238.66c-.22-.13-.41-.31-.64-.44s-.46-.22-.69-.34a7.588,7.588,0,0,1-1.28-.79,9.282,9.282,0,0,1-1.12-1.05c-.17-.18-.33-.38-.51-.56s-.34-.39-.51-.23-.05.48,0,.67a3.308,3.308,0,0,0,.38.72,6.56,6.56,0,0,0,2.51,2.17,3.281,3.281,0,0,0,.84.31,2.529,2.529,0,0,0,.46.06c.14,0,.27-.05.41-.06a.25.25,0,0,0,.15-.46Z"/><path class="au" d="M357.5,366.3a.63.63,0,0,0-.57-.15h0a.85.85,0,0,0-.22.07h-.05l-.1.05-.2.15c-.19.13-.36.29-.54.43a2.587,2.587,0,0,0-.33.31,4.119,4.119,0,0,0-.28.31,1.091,1.091,0,0,0-.21.27,1.66,1.66,0,0,0-.11.24v.07a.859.859,0,0,0,0,.28.56.56,0,0,0,.71.55l.15-.07a2,2,0,0,0,.82-.67c.1-.11.21-.21.32-.31.31-.27.72-.56.81-1A.63.63,0,0,0,357.5,366.3Z"/><path class="au" d="M360.54,368.87l-.05.07-.06.08Z"/><path class="au" d="M360.88,368.27a.61.61,0,0,0-.28-.6.75.75,0,0,0-.8.07,1.809,1.809,0,0,0-.29.19,3.265,3.265,0,0,0-.4.34l-.26.26a7.645,7.645,0,0,0-.51.62c-.09.12-.19.23-.27.36a1.6,1.6,0,0,0-.13.3.322.322,0,0,0-.08.1.53.53,0,0,0,0,.33.67.67,0,0,0,.51.57.78.78,0,0,0,.56-.07,1.858,1.858,0,0,0,.41-.33c.2-.23.39-.47.58-.72l-.12.16c.24-.31.49-.6.73-.91a2.707,2.707,0,0,0,.25-.34A.81.81,0,0,0,360.88,368.27Z"/><path class="au" d="M414.93,372h0a.24.24,0,0,0-.11,0h.08Z"/><path class="au" d="M414.93,372h-.09a.709.709,0,0,0-.2,0,1.361,1.361,0,0,0-.29,0,2.38,2.38,0,0,0-.51.18,3.78,3.78,0,0,0-.76.57,5,5,0,0,0-.55.58,2.769,2.769,0,0,0-.31.45.91.91,0,0,0,.15,1.09.73.73,0,0,0,.85.11.811.811,0,0,0,.26-.26.578.578,0,0,0,0-.14h0l.28-.35a1,1,0,0,1-.13.16c.24-.3.51-.56.77-.84l.2-.21a4.009,4.009,0,0,0,.26-.32l.14-.21a1,1,0,0,0,.1-.21s0-.07,0-.1a.36.36,0,0,0-.17-.5Z"/><path class="au" d="M419.11,373.71a.29.29,0,0,0,0-.13.23.23,0,0,0,0-.14h0c0-.06,0-.13-.11-.15a.52.52,0,0,0-.24-.05.321.321,0,0,0-.14,0h0a1.3,1.3,0,0,0-.48.25,6.308,6.308,0,0,0-.62.52c-.18.17-.35.35-.52.53s-.6.62-.5,1.07a.56.56,0,0,0,.21.31.7.7,0,0,0,.35.12.9.9,0,0,0,.65-.3,3.715,3.715,0,0,0,.27-.29c.18-.19.35-.4.52-.61a3.41,3.41,0,0,0,.51-.73L419,374a.65.65,0,0,0,.06-.24C419.09,373.88,419.11,373.72,419.11,373.71Z"/><path class="aw" d="M396.48,124.68a3.861,3.861,0,0,0-.64-.25,4.28,4.28,0,0,0-1.23-.15,2.9,2.9,0,0,0-2.33,1,.45.45,0,0,0,.5.64,3.748,3.748,0,0,0,.53-.19h.16l.22-.08a3.877,3.877,0,0,1,.49-.11H395a3.723,3.723,0,0,1,.48.11l.23.08h.14a1,1,0,0,0,.74.08.45.45,0,0,0,.34-.44A.87.87,0,0,0,396.48,124.68Z"/><path class="aw" d="M395.32,128.13v-.11a.73.73,0,0,0-.17-.34.63.63,0,0,0-.28-.23.71.71,0,0,0-.34-.13.968.968,0,0,0-1.08.83c-.07.39-.13.79-.2,1.19a.7.7,0,0,0,0,.38.681.681,0,0,0,.17.35.81.81,0,0,0,.28.24.73.73,0,0,0,.35.12.94.94,0,0,0,.74-.2l.17-.18h0a.93.93,0,0,0,.27-.54,6.876,6.876,0,0,1,.1-.9,1.17,1.17,0,0,0-.01-.48Z"/><path class="aw" d="M405.68,126.86a3.821,3.821,0,0,1,.68-.07,3.71,3.71,0,0,1,1.23.18,2.83,2.83,0,0,1,2,1.58.44.44,0,0,1-.64.49,3.881,3.881,0,0,1-.47-.32l-.06-.05-.08-.06-.19-.13a3.679,3.679,0,0,0-.44-.23h-.11l-.26-.08-.22-.05H407a4.179,4.179,0,0,0-.5,0h-.39a1,1,0,0,1-.74-.12.47.47,0,0,1-.21-.52.87.87,0,0,1,.52-.62Z"/><path class="aw" d="M405.89,130.49a.21.21,0,0,1,0-.1.65.65,0,0,1,.24-.28.71.71,0,0,1,.33-.15.59.59,0,0,1,.37,0,.92.92,0,0,1,.64.38,1,1,0,0,1,.19.7c-.05.4-.09.79-.13,1.19a.79.79,0,0,1-.14.37.78.78,0,0,1-.25.29.7.7,0,0,1-.34.15.77.77,0,0,1-.37,0,1,1,0,0,1-.66-.39l-.12-.21h0a.94.94,0,0,1-.13-.59l.15-.9a1.121,1.121,0,0,1,.22-.46Z"/><path class="ap" d="M440.63,195.65a.62.62,0,0,0-1-.28c-.41.49-.83,1-1.24,1.45a7.518,7.518,0,0,0-1-1.51.62.62,0,0,0-1,.27c-.13.75-.26,1.51-.4,2.26-.06.36-.13.72-.19,1.09a4.54,4.54,0,0,0-.1,1.27c.06.43.69.45.89.12a4.09,4.09,0,0,0,.33-1.08c.08-.38.16-.75.23-1.13s.09-.5.14-.74a5.7,5.7,0,0,1,.34.76.62.62,0,0,0,1,.27l.9-1v.71a9.153,9.153,0,0,1-.11,1,9.94,9.94,0,0,0-.22,1.19.6.6,0,0,0,1.11.3,4.441,4.441,0,0,0,.32-1.24c.07-.4.11-.8.14-1.2a11.516,11.516,0,0,0-.14-2.51Z"/><path class="ap" d="M442.85,196.08a.36.36,0,0,0-.65-.08,3.48,3.48,0,0,0-.29,1.15c-.05.38-.1.76-.16,1.13l-.18,1.14c-.07.41-.19.82-.22,1.23a.52.52,0,0,0,.46.52.54.54,0,0,0,.58-.38,7.177,7.177,0,0,0,.23-1.12c.08-.42.14-.83.19-1.24s.09-.77.12-1.15A3,3,0,0,0,442.85,196.08Z"/><path class="ap" d="M445.18,200.42a1.65,1.65,0,0,0-.57-.09,14.607,14.607,0,0,0,.36-1.72,11.194,11.194,0,0,0,.1-1.29,1.59,1.59,0,0,0-.29-1.15.2.2,0,0,0-.28,0,1.7,1.7,0,0,0-.32,1.05c-.05.41-.09.82-.15,1.23a15,15,0,0,1-.59,2.4c-.15.45.37.73.73.56a1,1,0,0,1,.46,0,1.19,1.19,0,0,1,.51.24,1.34,1.34,0,0,0,.6.29.37.37,0,0,0,.39-.38A1.24,1.24,0,0,0,445.18,200.42Z"/><path class="ap" d="M449.58,200.42a4.41,4.41,0,0,0-.8-.92c.22-.29.45-.58.65-.89a4.9,4.9,0,0,0,.36-.63c0-.11.1-.23.14-.35a1.541,1.541,0,0,0,0-.37.19.19,0,0,0-.28-.16.274.274,0,0,0-.23.08,1.07,1.07,0,0,0-.27.25c-.17.19-.32.4-.48.61s-.41.53-.61.79v-.73a3,3,0,0,0-.17-1.31c-.15-.32-.56-.18-.67.08a3.9,3.9,0,0,0-.11,1.23,6.255,6.255,0,0,1-.08,1.22c-.08.41-.07.81-.11,1.22l-.06.51a1,1,0,0,0,0,.38,1.411,1.411,0,0,0,.17.32h0a.35.35,0,0,0,.56.08.89.89,0,0,0,.33-.63c0-.21.05-.43.07-.65a2.743,2.743,0,0,0,0-.41,3.339,3.339,0,0,1,.71.84c.24.4.33.87.57,1.26a.45.45,0,0,0,.8-.1,2.46,2.46,0,0,0-.49-1.72Z"/><path class="n" d="M294.64,236.24a1.61,1.61,0,0,1,.65-1.39,1,1,0,0,1,1.39.3A5.31,5.31,0,0,1,297,233a2.61,2.61,0,0,1,1.48-1.55,1.77,1.77,0,0,1,2,.55,2,2,0,0,1,.33,1.05,6.53,6.53,0,0,1-1.17,3.47,1.14,1.14,0,0,1,1.69-.05,1.47,1.47,0,0,1,.18,1.46,4,4,0,0,1-.9,1.25c-.41.42-.84.82-1.28,1.21a2.08,2.08,0,0,1-2,.69C295.82,240.47,294.66,237.71,294.64,236.24Z"/><path class="n" d="M303.09,239.93c.52-.41,1.49-.22,1.58.43.41-1.34.95-2.84,2.23-3.42a1.37,1.37,0,0,1,1.52.15,1.44,1.44,0,0,1,.32,1,6.78,6.78,0,0,1-1.05,3.24.81.81,0,0,1,1.24.28,1.77,1.77,0,0,1-.05,1.44c-.67,1.81-3.19,4-5.16,2.57C302.45,244.63,301.77,241,303.09,239.93Z"/><path class="j" d="M264,242.3a6.76,6.76,0,0,1,1.79.23,4.49,4.49,0,0,1,2,1.38c2.15,2.49,1.66,6.56-.54,9s-5.69,3.4-9,3.26c-2.59-.11-5.4-1-6.66-3.29C247.62,245.67,258.85,242.2,264,242.3Z"/><path class="m" d="M277.93,241.84c1.09,3.31,2.19,6.72,2,10.21a44.5,44.5,0,0,0-13.14,3.29c.34-.09-3.9-10.07-2.31-11.38,1.28-1.06,4.71-1.07,6.31-1.32Q274.345,242.085,277.93,241.84Z"/><path class="n" d="M276.49,247.19c.68-2,1.58-4.08,3.43-5a6.9,6.9,0,0,1,6.05.47,7.45,7.45,0,0,1,4.2,4.73,9.36,9.36,0,0,1-.46,4.53,59.6,59.6,0,0,1-2.95,8.08c-1,2.18-2.17,4.39-4.15,5.73A7.32,7.32,0,0,1,278,266.9a4.52,4.52,0,0,1-2.47-.89c-2.22-1.84-2.24-6.88-1.8-9.45a64.548,64.548,0,0,1,2.76-9.37Z"/><path class="ax" d="M266.32,227.14s.59,4.58.7,6.23,9.19.8,9.06.23.47-6.82-1.18-9.29S266.32,227.14,266.32,227.14Z"/><path class="l" d="M294.11,248c1.22-2.29,3.05-4.44,5.54-5.18a9,9,0,0,1,6.06.63c1.28.55,2.59,1.48,2.79,2.86a4.81,4.81,0,0,1-1.06,3.09c-3,4.66-6.65,9.25-11.78,11.32-1.58.63-3.6.92-4.8-.3-1.58-1.62-.5-4.17.31-5.89C292.18,252.41,293,250.14,294.11,248Z"/><path class="l" d="M289.48,242.92a10.3,10.3,0,0,1,2.54-4.24,3.9,3.9,0,0,1,2.08-1,5.369,5.369,0,0,1,1.78.18c1.81.4,3.81,1.1,4.61,2.78a6.19,6.19,0,0,1-.09,4.42,35.64,35.64,0,0,1-6.88,12.78c-1.08,1.28-2.48,2.58-4.14,2.48-3.59-.22-2.5-4.26-2.29-6.45a42.231,42.231,0,0,1,2.39-10.95Z"/><path class="ay" d="M237.91,251.39c-3.08,1.63,1.41,34.8,3.45,38.56s19.59,5.33,32.6,5.33,25.39-1.26,27.9-3,5.51-37.94,4.55-39.5C303.9,248.73,245.9,247.16,237.91,251.39Z"/><path class="az" d="M198.88,365c-1.25,2.35-1.72,8.38-.08,10.19s20.46,1.72,22.34,1.41,2.9-7.13-.31-7.92-8.08.32-10-2.9S198.88,365,198.88,365Z"/><path class="az" d="M232.42,365c-1.25,2.35-1.72,8.38-.07,10.19s20.45,1.72,22.33,1.41,2.9-7.13-.31-7.92-8.07.32-10-2.9S232.42,365,232.42,365Z"/><path class="ba" d="M196.37,227.72s-5.8,100,1.1,136.37c.83,4.34,13.32,3.29,14.26,1.88s13.64-102.51,14.42-106c0,0,3.37,101.8,5.26,105.1s11.36,2.43,12.93.7,10.65-131.19,10-138.56-32.45-6.42-33.86-6.27S196.37,227.72,196.37,227.72Z"/><path class="q" d="M185.72,231l16.61,5s-2,19.91-2.51,19.91-19.12-3.14-19.12-3.14-.78-12.38-.47-13.32S185.72,231,185.72,231Z"/><path class="ao" d="M197.16,248.41a30.69,30.69,0,0,1,4.7-7c2.19-2.2,6-.78,6.74-.78s2-2.36,3-3.3,4.54,1.73,4.54,2.36-1.88,3.6-1.88,3.6a30.92,30.92,0,0,1,2,5.17c.47,2-1.57,7.37-2.35,7.68s-9.25,2.2-10.19,1.73S197.16,248.41,197.16,248.41Z"/><path class="n" d="M167.35,228.5a3.41,3.41,0,0,1,6.33,1.25,4.08,4.08,0,0,1,5.41,5.13,4.6,4.6,0,0,1,3.44,6.25,2.54,2.54,0,0,1,1.91,2.43,4.39,4.39,0,0,1-1.27,3,2.44,2.44,0,0,1,1.09,2.62,5.5,5.5,0,0,1-1.49,2.61,15.51,15.51,0,0,1-24.93-2.68c-2.29-4-2.82-8.94-2.35-13.44.31-3,2.57-6.82,6.2-4.64C162.58,229.18,165.18,226.14,167.35,228.5Z"/><path class="j" d="M151.23,253.74s-7.83-11.13-7.36-21.16,6.27-10,10-5.48,13.95,27.11,13.95,27.11Z"/><path class="ay" d="M148.1,251.39c-3.08,1.63,1.41,34.8,3.45,38.56s19.59,5.33,32.6,5.33,25.39-1.26,27.9-3,5.5-37.94,4.54-39.5C214.09,248.73,156.09,247.16,148.1,251.39Z"/><path class="ai" d="M180.86,233.84c-10.82,0-13.48,2.35-16.15,6.27s-2.51,12.69-1.41,14.1,3.76,1.57,4.55,0,.15-9.72,2.5-12.54,7.06-3,11-3.29,10.18-.16,12.54,3.61,1.41,11.6,2.35,13,3.76,1.56,4.23.31.47-13.95-3.61-17.4S186.81,233.84,180.86,233.84Z"/><path class="ax" d="M175.84,226.63s-.78,6.11-.78,9.24a7.15,7.15,0,0,0,3,5.65,1.6,1.6,0,0,0,1.88.15s.59,1,3,.47a3.63,3.63,0,0,0,3.61-.62s2.19.15,2.66-1.26-2-4.7-2.35-7.68c-.26-2.52-1.88-3.45-1.56-6.27S176.6,225.31,175.84,226.63Z"/><path class="bb" d="M224.59,133.68s-16,.31-23,5.17-18.81,26.65-22.73,43.73-4.86,42.16-3.92,44.67,10.66,1.73,11.76,1.57,4.54-31.82,8-41.38a78.519,78.519,0,0,1,7-15.05s-4.07,24.46-4.86,30.72-1.83,24.53-1.56,25.71,16.92,5.17,32.29,5a92.091,92.091,0,0,0,27.74-4.71l.08-44.2s8.34,34.92,9.46,43.17c.2,1.47,10.21.25,11.77-1s-3.76-34.49-7.83-49.53-12.38-31.67-14.89-34.8-13.48-6.58-13.48-6.58l-8.15-3.61Z"/><path class="ax" d="M228,121.61a114.146,114.146,0,0,1-3.45,12.07s6.89,7.37,15.83,2.51c0,0-.63-8.15-.47-12.54S228,121.61,228,121.61Z"/><path class="bc" d="M240.39,136.11c-.76.09-1.51.26-2.27.39s-1.44.31-2.17.38a16.32,16.32,0,0,1-4.47-.07,13.26,13.26,0,0,1-3.58-1.15,10.479,10.479,0,0,1-1.55-.91c-.4-.29-1.37-.9-1.44-1.43a.43.43,0,0,0-.85,0,2.14,2.14,0,0,0,.9,1.61,10.7,10.7,0,0,0,1.66,1.34,12.65,12.65,0,0,0,3.93,1.66,18.85,18.85,0,0,0,4.79.5,19.54,19.54,0,0,0,5.28-.58C241.53,137.57,241.42,136,240.39,136.11Z"/><path class="bc" d="M204.7,162.56a7.77,7.77,0,0,0-1,2.24c-.32.88-.61,1.78-.92,2.66s-.59,1.72-.88,2.58a5.47,5.47,0,0,0-.57,2.49.25.25,0,0,0,.42.11,5.36,5.36,0,0,0,1-2.27l.84-2.58c.27-.87.56-1.73.83-2.59a8.22,8.22,0,0,0,.6-2.51C205,162.54,204.81,162.42,204.7,162.56Z"/><path class="bc" d="M255.79,180.81c-.1-1.72-.23-3.43-.4-5.14s-.36-3.26-.59-4.88a17.411,17.411,0,0,0-1-4.92c0-.1-.16,0-.17,0a21.5,21.5,0,0,0,.33,4.86c.17,1.63.34,3.26.48,4.89s.26,3.18.36,4.77a23.73,23.73,0,0,0,.37,4.47.16.16,0,0,0,.26.07,1.86,1.86,0,0,0,.54-1.61C255.89,182.51,255.84,181.66,255.79,180.81Z"/><path class="bd" d="M276,227.37a5.92,5.92,0,0,0-1.36.35c-.47.13-.94.24-1.42.33a16.781,16.781,0,0,1-2.73.31,16.469,16.469,0,0,1-2.72-.11l-1.39-.2c-.49-.08-.76-.16-1.16.15a.11.11,0,0,0,0,.11c.18.47.46.55.92.69a9.78,9.78,0,0,0,1.52.32,18.172,18.172,0,0,0,2.86.2,17.2,17.2,0,0,0,2.86-.27c.51-.09,1-.2,1.52-.34a4.23,4.23,0,0,0,1.41-.53C276.68,228.09,276.6,227.34,276,227.37Z"/><path class="bd" d="M186.88,228.18c-1-.28-2.12.19-3.11.3a20.14,20.14,0,0,1-3.2.1,19.821,19.821,0,0,1-3.25-.43,11.658,11.658,0,0,1-1.41-.36,5,5,0,0,0-.63-.28,3.69,3.69,0,0,0-.47,0h0c-.13,1,1,1.18,1.76,1.41a17.539,17.539,0,0,0,3.6.72,17,17,0,0,0,3.64,0c1-.11,2.48-.15,3.24-1a.3.3,0,0,0-.17-.46Z"/><path class="bc" d="M254.61,228.54c-2.72,2.25-6.27,2.64-9.66,3.11-4,.54-8,.92-12,1.11s-8.08.21-12.11,0a101.163,101.163,0,0,1-12-1c-4.51-.73-8.92-1.89-13.36-3a.45.45,0,0,0-.24.86,61,61,0,0,0,12,3.28,118.267,118.267,0,0,0,12.29,1.7,119.4,119.4,0,0,0,25-.93c3.83-.51,8.72-.8,11.54-3.82a1,1,0,0,0-1.46-1.31Z"/><path class="bd" d="M213.89,366.88a.7.7,0,0,0-.58-.19.6.6,0,0,0-.52.55.32.32,0,0,0,.05.19,2.431,2.431,0,0,0-.14.2c-.16.22-.31.43-.45.66l-.87,1.38a.76.76,0,0,0,.06.84.77.77,0,0,0,.8.27.83.83,0,0,0,.48-.36.35.35,0,0,0,.06-.14l.81-1.37a7.222,7.222,0,0,0,.41-.78C214.19,367.73,214.34,367.17,213.89,366.88Z"/><path class="bd" d="M217.86,368.09a.55.55,0,0,0-.22-.14.59.59,0,0,0-.67.3c-.06.11-.12.22-.17.33a8.335,8.335,0,0,0-.34.82l-.27.73a5.518,5.518,0,0,0-.18.53.62.62,0,0,0,0,.67.65.65,0,0,0,1.1,0,4,4,0,0,0,.33-.85c.09-.25.18-.49.26-.74s.17-.49.23-.74a3.266,3.266,0,0,0,.08-.37.58.58,0,0,0-.15-.54Z"/><path class="bd" d="M247.05,368.33Z"/><path class="bd" d="M247.11,366.91a.59.59,0,0,0-.69.09,9.81,9.81,0,0,0-1.2,1.67,11.14,11.14,0,0,0-.93,1.9.8.8,0,0,0,.67,1,.75.75,0,0,0,.79-.41h0l.14-.33.06-.13c.06-.16.13-.31.2-.46s.17-.37.25-.55c-.07.16,0,0,0-.06l.1-.25c.13-.28.27-.56.4-.85l.09-.2v-.05a1.421,1.421,0,0,1,.08-.18c.08-.19.16-.38.23-.57A.57.57,0,0,0,247.11,366.91Z"/><path class="bd" d="M245.93,370.81v.05Z"/><path class="bd" d="M252.81,369.13a3.226,3.226,0,0,0,.06-.33c0-.16,0-.28,0-.41a.43.43,0,0,0-.3-.4.42.42,0,0,0-.46.19c-.09.12-.2.21-.29.33l-.09.16c0,.06-.05.07,0,0a.5.5,0,0,0-.13.19c-.14.23-.25.47-.37.71a3.86,3.86,0,0,0-.63,1.74.55.55,0,0,0,.81.47,3.06,3.06,0,0,0,1.12-1.66,4.661,4.661,0,0,0,.28-.82q0-.27,0-.15C252.81,369.23,252.8,369.2,252.81,369.13Z"/><path class="be" d="M297.39,248.71A5.06,5.06,0,0,0,296,247.5a7.111,7.111,0,0,0-1.59-.78,7,7,0,0,0-1.68-.39,2.86,2.86,0,0,0-1.69.19.24.24,0,0,0,0,.41,7.322,7.322,0,0,0,1.47.35,7.64,7.64,0,0,1,2.81,1.2c.41.28.74.63,1.12.93h0l.09.07h0C297.06,249.77,297.74,249.25,297.39,248.71Z"/><path class="be" d="M299,244.75c-.48-1.25-1.89-1.87-3.1-2.23a7.461,7.461,0,0,0-1.93-.35c-.49,0-1.36-.08-1.66.4h0a.93.93,0,0,0,.61.27,4.377,4.377,0,0,1,.88.15,12.207,12.207,0,0,1,1.78.45c1.12.4,2.09,1.16,3.24,1.45C298.9,245,299,244.86,299,244.75Z"/><path class="be" d="M304.15,249.34c-.1-.32-.45-.48-.73-.63a7.4,7.4,0,0,0-.82-.37,4.25,4.25,0,0,0-.77-.23,1.51,1.51,0,0,0-.73,0,.649.649,0,0,0-.14,0c-.07,0-.12.11-.2.1a.05.05,0,0,0,0,.1c.07,0,.06.09.11.15a.25.25,0,0,0,.12.08,1.6,1.6,0,0,0,.57.35l.7.34a6.387,6.387,0,0,1,.69.35c.11.06.22.13.33.18a.88.88,0,0,0,.59.13.43.43,0,0,0,.28-.55Z"/><path class="be" d="M305,247h0a.56.56,0,0,0-.18-.47,1.93,1.93,0,0,0-.35-.29,2.53,2.53,0,0,0-.71-.32,2.23,2.23,0,0,0-.85-.07h-.31a.26.26,0,0,0-.11.07h0a.21.21,0,0,0-.11.08.27.27,0,0,0-.05.23.31.31,0,0,0,.16.19h.13l-.14-.08a1.66,1.66,0,0,0,.61.22l.27.09h.06l.13.06a3.5,3.5,0,0,1,.49.29l.23.15a.48.48,0,0,0,.34.08h0A.31.31,0,0,0,305,247Z"/><path class="bf" d="M152.76,234.9a2.21,2.21,0,0,0-.93-.36,2.88,2.88,0,0,0-1,.17,8.42,8.42,0,0,0-1.92.84,7.829,7.829,0,0,0-1.62,1.24,7.188,7.188,0,0,0-.66.8,4.059,4.059,0,0,0-.47.93c-.14.4.39.63.66.38a16.32,16.32,0,0,1,2.76-2.21,7.5,7.5,0,0,1,1.57-.67,8.389,8.389,0,0,0,.85-.27,4.6,4.6,0,0,0,.76-.55.17.17,0,0,0,0-.3Z"/><path class="bf" d="M157.75,245.75a.851.851,0,0,1-.24.05,1.79,1.79,0,0,0-.69-.12,9.189,9.189,0,0,0-1,0,7.88,7.88,0,0,0-2.1.4,7.4,7.4,0,0,0-1.84.93,4.53,4.53,0,0,0-.81.71,1.12,1.12,0,0,0-.25.42,1.869,1.869,0,0,0,0,.41h.38a1.851,1.851,0,0,0,.44-.18c.27-.16.54-.34.81-.49a8.1,8.1,0,0,1,1.83-.75,7.929,7.929,0,0,1,1.88-.23c.47,0,1.41-.12,1.57-.68A3.106,3.106,0,0,0,158,246C158,245.88,157.89,245.7,157.75,245.75Z"/><path class="bg" d="M205.85,242.73a.51.51,0,0,0-.35-.54,2.39,2.39,0,0,0-1.79.25,3.09,3.09,0,0,0-.7.5c-.25.24-.64.64-.49,1,.08.19.26.41.5.38a.64.64,0,0,0,.42-.18,1.119,1.119,0,0,0,.17-.21s.08-.1,0,0h0l.11-.13.13-.12h0a2.2,2.2,0,0,1,.3-.19l.15-.08h0l.33-.09h.59a.52.52,0,0,0,.63-.59Z"/><path class="bh" d="M170,232.52a1.52,1.52,0,0,0-.72-.58,1.38,1.38,0,0,0-.65-.15h0a.32.32,0,0,0,0-.09,2.88,2.88,0,0,0-1.44-1,2.59,2.59,0,0,0-1.65,0,2.87,2.87,0,0,0-1.29.88c-.31.39-.73,1.18-.3,1.61a.38.38,0,0,0,.6-.07c-.06.08.08-.11,0-.06s.08-.11.09-.14l.14-.21.06-.08.07-.07.18-.2.12-.11h0l.23-.14.13-.06h0l.29-.08h.29a4.606,4.606,0,0,1,.53.15h0l.12.06h0a1.77,1.77,0,0,0-.5.74,1,1,0,0,0,0,.74v.1a.25.25,0,0,0,.48.07h0a1.771,1.771,0,0,0,.17-.14l.18-.18.13-.11.09-.08h.06l.11-.07.24-.12h.3a.8.8,0,0,0,.26,0h0l.21.11h.13a2.78,2.78,0,0,0,.33.27.67.67,0,0,0,.79-.1.68.68,0,0,0,.22-.89Z"/><path class="bh" d="M166,231.93Z"/><path class="bh" d="M163.4,235.15l-.18-.08-.13-.07h-.05a.56.56,0,0,0-.29-.14,1,1,0,0,0-.52,0,2.291,2.291,0,0,0-.64.33,2.66,2.66,0,0,0-.58.58,1.559,1.559,0,0,0-.17.37,1,1,0,0,0,0,.48.44.44,0,0,0,.6.29h.05a1.088,1.088,0,0,0,.17-.13s.13-.17.07-.08h0l.17-.18a1.54,1.54,0,0,1,.17-.19l.09-.07h0l.21-.13.1-.06h0a1.76,1.76,0,0,0,.42-.24h0a.45.45,0,0,0,.15-.16h0v-.05a.52.52,0,0,1,.23-.05.22.22,0,0,0,.13-.42Z"/><path class="bh" d="M178.63,244.91h0v-.05Z"/><path class="bh" d="M179.14,243.39a2.36,2.36,0,0,0-1.09-.71,2,2,0,0,0-2.06.55,1.661,1.661,0,0,0-.29-.1,2.54,2.54,0,0,0-1.79.25,2.09,2.09,0,0,0-.66.52.79.79,0,0,0-.22.51c0,.13.05.35.19.4a.87.87,0,0,0,.78-.11c.09-.06.19-.1.28-.15h.16l.31-.08h.74l.24.14h0a.52.52,0,0,1,.11.1l.08.09h0l.13.23h0v.56h0a.59.59,0,0,0,.39.61.66.66,0,0,0,.89-.43,2,2,0,0,0-.56-2h.22a.809.809,0,0,1,.22,0h.1l.24.06h.08l.18.12.08.07.14.15h0l.06.09.11.19a1.33,1.33,0,0,0,.26.34h0a.73.73,0,0,0,.26.17l-.22-.12s0,.06.08.08a.611.611,0,0,0,.18.09.46.46,0,0,0,.45-.12.63.63,0,0,0,.17-.31h0A1.39,1.39,0,0,0,179.14,243.39Z"/><path class="bh" d="M280.41,246.4Z"/><path class="bh" d="M280.08,246.66Z"/><path class="bh" d="M285.16,245.9a2.54,2.54,0,0,0-1.31-.13,1.421,1.421,0,0,0-.22.07,2.84,2.84,0,0,0-2-.8,3,3,0,0,0-1.17.24,1.54,1.54,0,0,0-.92.88.41.41,0,0,0,.1.41.4.4,0,0,0,.45.09l.15-.09.06-.08.12-.09h0l.19-.12a.31.31,0,0,0,.1,0h.07a3.172,3.172,0,0,1,.41-.12h.75l.24.07h.11a2.188,2.188,0,0,1,.3.16,2.928,2.928,0,0,0-.38.41,1.468,1.468,0,0,0-.14.28.909.909,0,0,0-.06.32.3.3,0,0,0,.44.25c.07-.05.14-.08.21-.14l.18-.16a2.509,2.509,0,0,1,.32-.25l.21-.11.12-.06h0a1.169,1.169,0,0,1,.25-.07H284a1.74,1.74,0,0,1,.87.12h0l.12.06.21.13h0a.429.429,0,0,0,.1.09.92.92,0,0,0,.36.2.47.47,0,0,0,.58-.58C286.16,246.35,285.58,246.07,285.16,245.9Z"/><path class="bi" d="M268.52,246.89c-.07-.32-.14-.65-.22-1-.17-.65-.35-1.29-.54-1.94a.29.29,0,0,0-.2-.19c-.06,0-.14-.05-.19,0l-.09.08a.29.29,0,0,0-.08.28c.16.65.31,1.31.44,2l.18.94a4.159,4.159,0,0,0,.26,1c.14.31.55.12.57-.15a3.5,3.5,0,0,0-.13-1.02Z"/><path class="bf" d="M201.21,236.69a12.64,12.64,0,0,0-.74,2.43c-.11.41-.22.81-.32,1.22a1.93,1.93,0,0,0-.09,1.25.29.29,0,0,0,.38.1,1.81,1.81,0,0,0,.5-1.13c.1-.41.2-.82.29-1.23a13.539,13.539,0,0,0,.47-2.51.26.26,0,0,0-.49-.13Z"/><path class="bf" d="M256.08,248.25a7.568,7.568,0,0,1-.29-1.16,4.9,4.9,0,0,1-.08-.77,1.91,1.91,0,0,0-.09-.75.29.29,0,0,1,0-.09c0-.17-.34-.23-.42,0v.1l.09-.1c-.28.18-.23.6-.23.89a6.328,6.328,0,0,0,0,.87,5.86,5.86,0,0,0,.44,1.8.4.4,0,0,0,.55.14.58.58,0,0,0,.29-.58.41.41,0,0,0-.26-.35Z"/><path class="bj" d="M167.44,277.05l-.15-2.41c-.1-1.72-.2-3.45-.31-5.17s-.29-3.66-.57-5.46a6.49,6.49,0,0,0-.64-2.46,2,2,0,0,0-.73-.73c-.53-.24-.65-.29-.36-.14a1.49,1.49,0,0,0-1.42,0c.37-.13.27-.08-.29.14a2,2,0,0,0-.73.73,3.38,3.38,0,0,0-.4,1.38c-.09.8-.14,1.6-.16,2.41,0,1.67-.06,3.33,0,5s.08,3.22.13,4.83c0,1.85-.16,4,.64,5.65a2.65,2.65,0,0,0,2.67,1.28,2.74,2.74,0,0,0,2.23-1.92A7.61,7.61,0,0,0,167.44,277.05Z"/><path class="bj" d="M202.51,277.17v-2.42l-.09-5.17a50.061,50.061,0,0,0-.33-5.48,6.58,6.58,0,0,0-.54-2.49,2,2,0,0,0-.7-.76c-.52-.26-.63-.31-.35-.16a1.53,1.53,0,0,0-1.41-.06c.36-.11.26-.07-.3.13a2.07,2.07,0,0,0-.77.7,3.6,3.6,0,0,0-.46,1.36,24.084,24.084,0,0,0-.25,2.4c-.1,1.66-.21,3.32-.24,5s-.07,3.2-.07,4.78c0,1.85-.33,4,.39,5.68A2.66,2.66,0,0,0,200,282.1a2.73,2.73,0,0,0,2.3-1.82A7.74,7.74,0,0,0,202.51,277.17Z"/><path class="bj" d="M186.18,275.39c-.13-2-.33-4.05-.55-6.07s-.43-4.05-.65-6.08c-.2-1.84-.1-4.56-1.9-5.65a1.65,1.65,0,0,0-2,.25c-1.43,1.46-1.1,4-1.11,5.85v5.85c0,2,0,3.9.08,5.85.08,2.13-.15,4.6.44,6.65a3.08,3.08,0,0,0,2.91,2.22,3,3,0,0,0,2.91-2.22C186.71,279.89,186.31,277.57,186.18,275.39Z"/><path class="bj" d="M258.93,277.05c-.05-.8-.1-1.61-.14-2.41-.11-1.72-.21-3.45-.32-5.17s-.29-3.66-.57-5.46a6.491,6.491,0,0,0-.64-2.46,2,2,0,0,0-.73-.73c-.53-.24-.65-.29-.36-.14a1.49,1.49,0,0,0-1.42,0c.37-.13.27-.08-.29.14a2,2,0,0,0-.73.73,3.38,3.38,0,0,0-.4,1.38c-.09.8-.14,1.6-.16,2.41,0,1.67-.06,3.33,0,5s.08,3.22.13,4.83c.05,1.85-.16,4,.64,5.65a2.65,2.65,0,0,0,2.67,1.28,2.74,2.74,0,0,0,2.23-1.92A7.61,7.61,0,0,0,258.93,277.05Z"/><path class="bj" d="M294,277.17c0-.81,0-1.61-.05-2.42l-.09-5.17a50.064,50.064,0,0,0-.33-5.48,6.579,6.579,0,0,0-.54-2.49,2,2,0,0,0-.7-.76c-.52-.26-.63-.31-.35-.16a1.53,1.53,0,0,0-1.41-.06c.36-.11.26-.07-.3.13a2.07,2.07,0,0,0-.77.7,3.6,3.6,0,0,0-.46,1.36,24.084,24.084,0,0,0-.25,2.4c-.1,1.66-.21,3.32-.24,5l-.07,4.82c0,1.85-.33,4,.4,5.68a2.65,2.65,0,0,0,2.61,1.39,2.73,2.73,0,0,0,2.3-1.82,7.57,7.57,0,0,0,.25-3.12Z"/><path class="bj" d="M277.67,275.39c-.13-2-.33-4.05-.55-6.07s-.43-4.05-.65-6.08c-.2-1.84-.1-4.56-1.9-5.65a1.65,1.65,0,0,0-1.95.25c-1.43,1.46-1.1,4-1.11,5.85v5.85c0,2,0,3.9.08,5.85.08,2.13-.15,4.6.44,6.65a3.08,3.08,0,0,0,2.91,2.22,3,3,0,0,0,2.91-2.22C278.2,279.89,277.8,277.57,277.67,275.39Z"/><path class="ai" d="M270.67,233.84c-10.82,0-13.48,2.35-16.15,6.27s-2.5,12.69-1.41,14.1,3.77,1.57,4.55,0,.16-9.72,2.51-12.54,7.05-3,11-3.29,10.19-.16,12.54,3.61,1.41,11.6,2.35,13,3.76,1.56,4.23.31.47-13.95-3.6-17.4S276.62,233.84,270.67,233.84Z"/><path class="ax" d="M266.52,232.16c-.79,1.22-.58,6.89.33,7.66s2.58.08,2.58.08.66.77,2.08.15c0,0,1.49.85,2.41.23a1.53,1.53,0,0,0,1.66-.07c.75-.62,1.33-7,.58-8a1.27,1.27,0,0,0-1.83-.15,1.68,1.68,0,0,0-2.33-.24s-1.82-1-2.49,0C269.51,231.85,267.27,231,266.52,232.16Z"/><path class="bg" d="M217,238.51a3.58,3.58,0,0,0-1.33-1.2c-.35-.24-.72-.46-1.09-.67a11.365,11.365,0,0,0-1.11-.54l-.8-.34a2.09,2.09,0,0,0-.85-.21,1.15,1.15,0,0,0-1,.7,1.17,1.17,0,0,0,.23,1.25,2.76,2.76,0,0,0,.8.5l.63.36c.37.23.73.49,1.09.75.21.17.42.34.62.52l.37.35.16.15a2,2,0,0,0,.76.41,1.37,1.37,0,0,0,1.45-.5A1.42,1.42,0,0,0,217,238.51Z"/><path class="bk" d="M240,123.65c.15-4.39-11.91-2-11.91-2s-.84,3.8-2.15,8.11A23.06,23.06,0,0,0,238.11,131a14.672,14.672,0,0,0,2-.46C240,128.18,239.88,125.56,240,123.65Z"/><path class="ac" d="M232.82,125s-15.23.54-18.91-15.87,6.12-23.49,9.53-23a24.05,24.05,0,0,1,16.16-9.34c13.34-1.93,15,7.88,14.8,14.17,0,0,8.52,13.47-.74,22.35A51.63,51.63,0,0,1,232.82,125Z"/><path class="ax" d="M223,107.31s-4.25-.51-3.77,3.77a4.57,4.57,0,0,0,4.7,4.14s7.34,15,19.49,12.91,11.82-23.09,9.13-30.3c0,0-12.64-.77-21.53-3.45C230.51,94.22,227.56,104.45,223,107.31Z"/><path class="bk" d="M223.63,111.08a1,1,0,0,0-.15-.56h0a6.261,6.261,0,0,0-.34-.91,1.92,1.92,0,0,0-.84-1,1.34,1.34,0,0,0-1.14,0,1.42,1.42,0,0,0-.51.37.65.65,0,0,0-.07.75.35.35,0,0,0,.32.14.6.6,0,0,0,.23-.1.41.41,0,0,0,.1-.09h0l.09-.09.08-.06h.43l.09.11a1.871,1.871,0,0,1,.16.28l.15.37a1.16,1.16,0,0,0-.27.18,1.5,1.5,0,0,0,.45,2.31.87.87,0,0,0,1.16-.65A2,2,0,0,0,223.63,111.08Z"/><path class="bl" d="M237.55,101.39a3.45,3.45,0,0,0-2.45-.48,3.19,3.19,0,0,0-1.09.32,3.46,3.46,0,0,0-.52.32,1.36,1.36,0,0,0-.24.24.38.38,0,0,0-.09.13.26.26,0,0,0-.06.13c0,.07,0,.09,0,0a.46.46,0,0,0,.29.62.69.69,0,0,0,.35,0h.25l.26-.07h.13a6.127,6.127,0,0,1,.86-.11h.28a2.609,2.609,0,0,1,.36.08H236l.18.08a2.69,2.69,0,0,0,.67.19.87.87,0,0,0,.92-.49.86.86,0,0,0-.22-.96Z"/><path class="bl" d="M236.32,105a1.07,1.07,0,0,0-.67-.82c-.92-.32-1.49.9-1.59,1.6a2.7,2.7,0,0,0,0,.94,1.709,1.709,0,0,0,.24.65.91.91,0,0,0,.85.43c.52,0,.78-.48.95-.92a3.72,3.72,0,0,0,.22-1.88Z"/><path class="bl" d="M247.53,102.61a3.46,3.46,0,0,1,2.49-.24,3.33,3.33,0,0,1,1,.43,2.52,2.52,0,0,1,.49.37,1.31,1.31,0,0,1,.22.25l.07.14a.34.34,0,0,1,.05.14h0a.46.46,0,0,1-.34.59.73.73,0,0,1-.36,0h-.25l-.25-.11h-.07a6,6,0,0,0-.84-.19h-.29a2.33,2.33,0,0,0-.36,0h-.12l-.19.06a2.28,2.28,0,0,1-.68.13.89.89,0,0,1-.87-.58.86.86,0,0,1,.3-.99Z"/><path class="bl" d="M248.4,106.35a1.09,1.09,0,0,1,.75-.75c.94-.22,1.39,1,1.42,1.75a2.65,2.65,0,0,1-.12.93,1.83,1.83,0,0,1-.3.63.93.93,0,0,1-.89.34c-.51-.1-.73-.55-.86-1A3.77,3.77,0,0,1,248.4,106.35Z"/><path class="at" d="M226.16,111.14a8,8,0,0,0-.29-.82,8.81,8.81,0,0,0-.9-1.72,7.909,7.909,0,0,0-1.2-1.45c-.4-.38-1-1-1.57-1a.24.24,0,0,0-.23.3,1.6,1.6,0,0,0,.48.68c.2.21.41.41.6.63a9.741,9.741,0,0,1,1,1.37,8.381,8.381,0,0,1,.71,1.48c.1.28.18.56.25.84a1.89,1.89,0,0,0,.35,1,.56.56,0,0,0,.92-.24,1.85,1.85,0,0,0-.12-1.07Z"/><path class="at" d="M225.54,115.39a.38.38,0,0,0-.4-.17h0a1.18,1.18,0,0,0-.31.05l-.25.09h-.08l-.31.12-.18.07h0l-.16.06-.36.13h-.36a.53.53,0,0,0-.17,0h-.12a.17.17,0,0,0-.2,0,.28.28,0,0,0-.09.1l.14-.11a.3.3,0,0,0-.18.15.28.28,0,0,0,0,.13h0a.52.52,0,0,0,.18.5.087.087,0,0,1,.08.06h0a.5.5,0,0,0,.21.13,1,1,0,0,0,.38.05,2.53,2.53,0,0,0,.76-.21,5.74,5.74,0,0,0,.79-.38,1.68,1.68,0,0,0,.64-.6h0a.37.37,0,0,0-.01-.17Z"/><path class="at" d="M222.39,116.24Z"/><path class="aa" d="M225.12,112.45c1-2.93,6.45-1.84,10.41-1.74s5.13-.9,8.85-1,4.64,2.31,7.45,2.93,1.73.3,2.06,3-3.91,13-12.39,13.15S222.22,120.71,225.12,112.45Z"/><path class="at" d="M247.24,113.1a.15.15,0,0,0-.28,0,1.11,1.11,0,0,1-.79.44,4.27,4.27,0,0,1-.86.19,17.442,17.442,0,0,1-2.17,0,19.33,19.33,0,0,1-2.15-.22c-.71-.13-1.39-.37-2.09-.5-.36-.06-.67.36-.37.64a5.19,5.19,0,0,0,2.34,1.11,15.381,15.381,0,0,0,2.78.39,5.81,5.81,0,0,0,2.72-.15,1.53,1.53,0,0,0,.87-1.9Z"/><path class="at" d="M249.82,120.68c-.4-.36-.87-.14-1.25.11a8.75,8.75,0,0,1-3.2,1,17.18,17.18,0,0,1-3.79.24,17.63,17.63,0,0,1-4.21-.68,11.311,11.311,0,0,1-1.75-.68A9.59,9.59,0,0,0,234,120a.13.13,0,0,0-.16.16c.19,1,1.26,1.65,2.14,2.08a15.649,15.649,0,0,0,3.34,1.13,17,17,0,0,0,7.42,0c1-.22,2.5-.47,3.13-1.36A1,1,0,0,0,249.82,120.68Z"/><path class="bm" d="M255.23,95.46a14.89,14.89,0,0,1-5,1,53.562,53.562,0,0,1-6.46-.51c-2.23-.28-4.44-.66-6.64-1.1-1.09-.21-2.17-.47-3.25-.74a23.328,23.328,0,0,0-3.07-.76.59.59,0,0,0-.06-.14.22.22,0,0,0-.34,0,2.41,2.41,0,0,0-.68,1.4,16.138,16.138,0,0,1-.53,1.8,29.768,29.768,0,0,1-1.54,3.52c-.55,1.07-1.13,2.13-1.72,3.18a16.27,16.27,0,0,1-.94,1.49,5.739,5.739,0,0,0-1,1.41.4.4,0,0,0,.49.48c1-.27,1.76-1.71,2.26-2.54.7-1.15,1.35-2.33,2-3.52a27.558,27.558,0,0,0,1.62-3.59,9.2,9.2,0,0,0,.66-2.49,22.245,22.245,0,0,0,2.7.86c1.14.33,2.3.63,3.45.92a60.75,60.75,0,0,0,7,1.25,45.29,45.29,0,0,0,6.68.48c1.71-.05,3.81-.34,4.59-2.11C255.45,95.57,255.37,95.41,255.23,95.46Z"/><path class="bn" d="M227.62,246.92V237.5a1.84,1.84,0,0,0-.22-1.11.24.24,0,0,0-.4,0,1.59,1.59,0,0,0-.21,1v14.14a13.72,13.72,0,0,1-1.7-2.56,14.8,14.8,0,0,1-1.08-3.62c-.25-1.29-.39-2.59-.54-3.89-.09-.86-.19-1.71-.28-2.57a8.6,8.6,0,0,0-.15-1.12c-.1-.43-.35-.82-.49-1.24a.18.18,0,0,0-.35,0,12,12,0,0,0-.21,1.34,10.129,10.129,0,0,0,.13,1.34c.1.89.2,1.79.29,2.68.15,1.33.3,2.67.57,4,.49,2.31,1.41,5.32,3.65,6.5a.4.4,0,0,0,.15,0v5.37c0,.64,1.14.82,1.13,0C227.65,254.19,227.64,250.55,227.62,246.92Z"/><path class="bn" d="M200.26,304.94c.17-2.42.41-4.85.43-7.27,0-.45-.71-.57-.8-.11a125,125,0,0,0-1.23,12.82c-.29,4.28-.48,8.57-.61,12.86q-.41,12.93.08,25.87c.17,4.85.31,9.75.8,14.59.08.8,1.33.84,1.29,0-.18-4.29-.53-8.57-.7-12.86s-.27-8.58-.3-12.87q-.1-12.87.61-25.74Q200,308.59,200.26,304.94Z"/><path class="bo" d="M56.75,365.37c-2,1.73-1.7,7.37-.64,8.54s13.74,1.74,15.79,1.27,1.59-3-.15-4.08-9.43-3.65-9.43-3.65-.8-3.4-1.37-3.51S56.75,365.37,56.75,365.37Z"/><path class="al" d="M54,340.4s1.21,25,2.34,27.2,4.86.94,5.84,0S66.49,341,66.49,341Z"/><path class="bo" d="M93.28,365.65c-1.89,1.81-1.39,7.43-.28,8.56s13.8,1.17,15.82.61,1.47-3-.32-4.07-9.57-3.26-9.57-3.26-.94-3.36-1.51-3.44S93.28,365.65,93.28,365.65Z"/><path class="al" d="M89.45,340.82s2.26,24.94,3.48,27.08,4.9.73,5.84-.28S102,340.84,102,340.84Z"/><path class="bp" d="M53.72,217.38s-3.7,48-4.53,70.29,4.47,62.66,4.71,64.54,10.69,3.29,11.63,2.35,7.41-40.56,8.94-53.25,8.7-47.49,8.7-47.49,2.82,37.5,3,46.2,2.75,49.25,3.57,51.6,10.27,1.33,11.91.39,3.8-65.4,4.51-78.21-4.69-56-4.69-56-26.7-9.15-27.52-8.92S53.72,217.38,53.72,217.38Z"/><path class="bq" d="M55.76,231.4,73,233.57s1.32,20,.85,20-19.37.11-19.37.11-2.84-12.08-2.69-13.06S55.76,231.4,55.76,231.4Z"/><path class="q" d="M42.86,231l16.62,5s-2,19.91-2.51,19.91-19.12-3.14-19.12-3.14-.79-12.38-.47-13.32S42.86,231,42.86,231Z"/><path class="ao" d="M9.76,254.38a37.789,37.789,0,0,1-3.65-9.8c-.61-3.78,3.52-6.52,4.08-7.3s-.87-3.74-1.13-5.36,5-3.3,5.63-2.84,2.25,4.48,2.25,4.48a38.231,38.231,0,0,1,6.64,1.7c2.37,1,6.23,6.89,6,7.9S25.06,254,23.91,254.59,9.76,254.38,9.76,254.38Z"/><path class="ao" d="M24.55,249.44A38.47,38.47,0,0,1,24.61,239c.77-3.75,5.6-4.85,6.41-5.38s.5-3.81.83-5.41,5.85-1.32,6.27-.67.51,5,.51,5a37.359,37.359,0,0,1,5.61,3.94c1.87,1.78,3.39,8.65,2.8,9.51s-8,8.53-9.32,8.69S24.55,249.44,24.55,249.44Z"/><path class="ac" d="M77.52,86.61C61,86.31,59.24,96.6,57,102.38s-7.74,9-7,16,4.23,9.6,3.9,17.25-3.61,17.86,3.28,22.81S94,161,98.55,155.32s5.34-10.74,1.85-16.89,1.52-14.23-1.08-22.41S95.15,86.93,77.52,86.61Z"/><path class="al" d="M102.92,171.17c0,.42,7.82,44,8.93,45.85.71,1.18,2,3.18,3.18,5.53a10.07,10.07,0,0,1,1.17,5.76,11.43,11.43,0,0,1-.82,2.23,4.32,4.32,0,0,1-.47,2.12c-.59,1.41-1.62,2.6-2.59,2.58,0,0-1.3.91-2,.59a2.23,2.23,0,0,1-.94-.7s-1.81,1.32-2.11,0a6.52,6.52,0,0,1-.47-2.83,42.871,42.871,0,0,0-.36-5.87c-.23-1.53-.23-5.18-.94-6.7s-10.58-41.15-11.63-43.62S102.92,171.17,102.92,171.17Z"/><path class="ay" d="M5.86,244.33C2.78,246,7.27,279.13,9.3,282.89s19.6,5.33,32.61,5.33,25.39-1.25,27.9-3,5.5-37.93,4.54-39.5C71.84,241.67,13.85,240.1,5.86,244.33Z"/><path class="ai" d="M38.61,226.78c-10.81,0-13.48,2.35-16.14,6.27s-2.51,12.69-1.41,14.1,3.76,1.57,4.54,0,.16-9.71,2.51-12.53,7.06-3,11-3.3,10.19-.15,12.54,3.61,1.41,11.6,2.36,13,3.76,1.57,4.23.31.47-13.95-3.61-17.4S44.57,226.78,38.61,226.78Z"/><path class="al" d="M40.85,179.4S36.2,218.2,35.79,221s-1.17,4.11-1.53,6.35,1.14,6.25,1.65,6.81,1.88.36,1.88.36.59.94,2.24.23a4.57,4.57,0,0,0,2.7-.23s1.29.23,1.64-.83-.23-6.34-.47-8.81-.7-2.82-.82-4.82,8.11-36.44,8.7-39-4.82-3.76-5.64-3.76S40.85,179.4,40.85,179.4Z"/><path class="bo" d="M61.73,140.41c-5.8,1.1-12.69,7.29-14.1,9.33s-8.55,26.25-8.7,30.57c0,0,8.85,3.29,13.71,3.21,0,0,3.61-11.52,6.78-15.17,0,0-5.06,44-8,53.5,0,0,29.14,9.2,51.71-1.49,0,0-8.32-33.43-8.79-42.6,0,0,7.4-3.65,10.11-5.53,0,0-3.15-13.47-5.29-18.81s-10.39-10.89-10.39-10.89-12.19-.39-12.77-.39S61.73,140.41,61.73,140.41Z"/><path class="al" d="M72.63,130.07s-.39,4.23-2,6.27-8.94,4.07-8.94,4.07,6.27,7.92,14.42,8.31,12.62-6.19,12.62-6.19-4.71-2.78-6.28-4-.69-8-.69-8Z"/><path class="bj" d="M27.11,270.37,27,268c-.1-1.72-.2-3.44-.31-5.16s-.29-3.67-.57-5.47a6.49,6.49,0,0,0-.64-2.46,2.13,2.13,0,0,0-.73-.73c-.53-.24-.65-.28-.36-.14a1.55,1.55,0,0,0-1.42,0c.37-.13.27-.08-.29.14a2,2,0,0,0-.73.73,3.38,3.38,0,0,0-.4,1.38c-.09.8-.15,1.61-.16,2.41,0,1.67-.06,3.33,0,5s.08,3.21.13,4.82c.05,1.85-.16,4,.64,5.66a2.66,2.66,0,0,0,2.67,1.27A2.7,2.7,0,0,0,27,273.5a7.49,7.49,0,0,0,.11-3.13Z"/><path class="bj" d="M62.17,270.49v-2.42c0-1.72-.06-3.45-.1-5.17s-.13-3.68-.32-5.48a6.58,6.58,0,0,0-.54-2.49,2,2,0,0,0-.7-.76c-.52-.26-.64-.31-.35-.15A1.49,1.49,0,0,0,58.7,254c.37-.12.27-.08-.29.12a2.07,2.07,0,0,0-.77.7,3.49,3.49,0,0,0-.46,1.36c-.12.8-.21,1.6-.26,2.4-.09,1.67-.2,3.33-.23,5s0,3.22-.07,4.82c0,1.86-.33,4,.39,5.68a2.67,2.67,0,0,0,2.62,1.4,2.74,2.74,0,0,0,2.3-1.82,7.8,7.8,0,0,0,.24-3.17Z"/><path class="bj" d="M45.85,268.71c-.13-2-.33-4-.55-6.07s-.44-4.05-.65-6.07c-.2-1.85-.1-4.57-1.9-5.65a1.62,1.62,0,0,0-2,.25c-1.43,1.46-1.1,4-1.11,5.85v5.85c0,1.95,0,3.89.07,5.84.09,2.13-.14,4.6.44,6.66a3.09,3.09,0,0,0,2.92,2.22A3,3,0,0,0,46,275.37,28.052,28.052,0,0,0,45.85,268.71Z"/><path class="bg" d="M15.58,228.21c-.72-.79-1.75-.59-2.67-.43a8.808,8.808,0,0,0-1.43.36,9.889,9.889,0,0,0-2.9,1.46,1.53,1.53,0,0,0-.64.84,1.39,1.39,0,0,0,.14,1.09A1.44,1.44,0,0,0,10,232l.18-.08.14-.06h0l.23-.09c.27-.11.55-.22.83-.31a10.59,10.59,0,0,1,1.48-.34c.28,0,.55-.06.83-.07h.49a1.89,1.89,0,0,0,1.39-.6,1.66,1.66,0,0,0,.01-2.24Z"/><path class="bg" d="M10.93,239.67a.22.22,0,0,0-.21-.27h-.47a.76.76,0,0,0-.21,0,.67.67,0,0,0-.33.21c-.1.1-.2.2-.29.31a1.27,1.27,0,0,0-.39.75,1.16,1.16,0,0,0,.09.56.52.52,0,0,0,.7.18l.16-.08a.77.77,0,0,0,.36-.31l.11-.18c.06-.1.14-.2.21-.3h0a.78.78,0,0,0,.16-.28.83.83,0,0,0,0-.22v-.29a.22.22,0,0,1,.11-.08Z"/><path class="bg" d="M31.65,235.4a.86.86,0,0,0-.54-.48,1.15,1.15,0,0,0-.41,0,1,1,0,0,0-.35,0l-.28.12a3.379,3.379,0,0,0-.41.24,6.545,6.545,0,0,0-.53.39,2,2,0,0,0-.44.47.85.85,0,0,0,.13,1,1,1,0,0,0,.37.21.9.9,0,0,0,.64-.08l.22-.15c.06-.05.14-.09.21-.14a2.64,2.64,0,0,1,.38-.18l.16-.07a.44.44,0,0,0,.16-.06,1.079,1.079,0,0,0,.29-.18h0l.12-.1h0a1,1,0,0,0,.23-.26.76.76,0,0,0,.05-.73Z"/><path class="br" d="M72.41,234.56c-.3.05-.42.35-.52.61s-.29.81-.41,1.22c-.23.77-.44,1.54-.64,2.32s-.39,1.55-.57,2.33-.32,1.4-.42,2.1a.58.58,0,0,0,0,.62.47.47,0,0,0,.85-.12c.23-.82.35-1.68.54-2.51s.4-1.73.61-2.59.45-1.66.65-2.49C72.55,235.85,73,234.45,72.41,234.56Z"/><path class="bq" d="M59,236.47h0a.21.21,0,0,0-.31-.18h0l-.07.06-.08.1a2.13,2.13,0,0,0-.16.25l-.12.21a1.3,1.3,0,0,0-.08.17.43.43,0,0,0,0,.12.3.3,0,0,0,.05.16v.05h0a.23.23,0,0,0,.3.05h0a.4.4,0,0,0,.19-.15l.06-.11.1-.21a1.309,1.309,0,0,0,.12-.27v-.12a.49.49,0,0,0,0-.12h0Z"/><path class="bs" d="M89.69,142.39a.67.67,0,0,0-.5-.5c-1.12-.16-1.81,1-2.58,1.68a14.21,14.21,0,0,1-2.38,1.61,15.68,15.68,0,0,1-5.6,1.85,17.1,17.1,0,0,1-12.15-3.35c-1.06-.76-2.09-1.56-3.09-2.42-.22-.19-1.93-2-2.2-1.26-.16.43.2.77.46,1.07.41.48.85.93,1.3,1.38a28.312,28.312,0,0,0,2.7,2.44,21.09,21.09,0,0,0,6.26,3.5,17,17,0,0,0,12.67-1.15,16.659,16.659,0,0,0,3-1.93C88.37,144.69,90.05,143.55,89.69,142.39Z"/><path class="bs" d="M104,172.12l-.13.08-.33.16-.66.32-1.3.7c-.83.46-1.65,1-2.47,1.44s-1.62,1-2.45,1.46c-.6.34-1.25.64-1.83,1v-.44a14.42,14.42,0,0,1,0-1.61,22.721,22.721,0,0,0,0-3.5,15.26,15.26,0,0,0-.61-3.22,10.74,10.74,0,0,0-1.35-3.06c-.19-.26-.66-.11-.56.24.31,1.07.74,2.09,1,3.19a18.539,18.539,0,0,1,.46,3.4c0,1.15-.11,2.27-.18,3.41A7.27,7.27,0,0,0,94,179c.23.53,1,.23,1-.28v-.46a11.392,11.392,0,0,0,2.26-1c1-.51,1.88-1,2.82-1.58s1.8-1.05,2.72-1.55c.46-.25.92-.49,1.39-.71s.88-.34,1-.83C105.25,171.86,104.26,171.54,104,172.12Z"/><path class="bs" d="M53,183a1.11,1.11,0,0,0-.56-.17c-.26,0-.5.08-.76.08a16.267,16.267,0,0,1-1.85-.13,27.807,27.807,0,0,1-3.86-.67A25.841,25.841,0,0,1,42.42,181c-.62-.24-1.22-.5-1.82-.78a10.549,10.549,0,0,0-1.68-.76.3.3,0,0,0-.29.49,10.36,10.36,0,0,0,3.21,1.84,28.21,28.21,0,0,0,3.53,1.3,25.541,25.541,0,0,0,3.65.79,10.1,10.1,0,0,0,3.67.16.61.61,0,0,0,.42-.43,1.2,1.2,0,0,0,0-.33A.29.29,0,0,0,53,183Z"/><path class="bt" d="M88.91,176.38c-1.94.62-3.51,1.14-5.54.49-2.29-.73-4.06-1.83-6.56-1.3-2.19.46-4,2.09-6.27,2.07s-4-1.11-5.91-2a.37.37,0,0,0-.54.42c.54,3.77,5.44,5.21,8.69,4.79a12.791,12.791,0,0,0,2.93-.71,5.85,5.85,0,0,1,3-.61,15.87,15.87,0,0,1,3,1.14,10.9,10.9,0,0,0,3.25.69c1.91.13,4.73-.2,6.19-1.59C93.06,177.93,91.32,175.61,88.91,176.38Z"/><path class="bs" d="M66.93,368.9a.658.658,0,0,1-.14,0,.62.62,0,0,0-.24,0,1.611,1.611,0,0,0-.54.2c-.22.15-.44.32-.65.49l-.45-.58c-.11-.13-.21-.25-.33-.37a.72.72,0,0,0-.29-.2.41.41,0,0,0-.22,0c-.14-.09-.38,0-.31.19h0a.46.46,0,0,0-.06.23.7.7,0,0,0,.12.34,3.7,3.7,0,0,0,.25.43l.42.6-.06.05c-.12.1-.24.2-.35.31l-.15.18a.45.45,0,0,0-.1.14.22.22,0,0,0,0,.1q0,.105,0,0a.31.31,0,0,0,.34.44h.06a.651.651,0,0,0,.2-.05l.21-.1a2.646,2.646,0,0,0,.4-.24h0l.16.22c.18.25.35.53.55.77a.22.22,0,0,0,.07.09h0a.63.63,0,0,0,.63.12.58.58,0,0,0,.27-.82,7.482,7.482,0,0,0-.59-.8c-.06-.08-.12-.17-.19-.25.22-.16.43-.31.64-.48a1.21,1.21,0,0,0,.33-.42.8.8,0,0,0,.1-.23,1.161,1.161,0,0,1,0-.18C67.12,369,67,368.9,66.93,368.9Z"/><path class="bs" d="M103.46,370.87l-.1-.12a4.169,4.169,0,0,0-.67-.59l-.38-.31.47-.47a1.4,1.4,0,0,0,.51-.91,1.1,1.1,0,0,0,0-.16.17.17,0,0,0-.21-.22h-.17a1.42,1.42,0,0,0-.88.49l-.54.57a9.367,9.367,0,0,0-1.18-.92c-.34-.2-.78.22-.55.56a7.778,7.778,0,0,0,1,1.15c0,.05-.09.09-.13.15a2,2,0,0,0-.56.93.26.26,0,0,0,.31.31,1.93,1.93,0,0,0,.91-.54l.18-.18.39.35a2.59,2.59,0,0,0,1,.71.55.55,0,0,0,.52-.14.58.58,0,0,0,.08-.66Z"/><path class="bu" d="M81.58,133.29c.06-1.51.22-2.75.22-2.75l-9.17-.47a17.89,17.89,0,0,1-1.37,5.3,18,18,0,0,0,6.74-.48A11.11,11.11,0,0,0,81.58,133.29Z"/><path class="al" d="M64.89,115s-3.91-.23-3.82,3.16,4,3.32,4,3.32,4.3,12.28,15,10.92,10-16.72,9.42-23.21c0,0-6.73-2.2-8.61-6.44,0,0-4.72,4.63-8.88,5.39S64.72,113.23,64.89,115Z"/><path class="bm" d="M93.85,108.72a12.44,12.44,0,0,1-3.85.12,12.89,12.89,0,0,1-6.61-3.7c-.45-.47-.87-1-1.29-1.48a5.71,5.71,0,0,0-1-1.2.3.3,0,0,1,0-.1.23.23,0,0,0-.39-.16c-.11.09-.24.09-.35.16a1.19,1.19,0,0,0-.31.36c-.24.31-.45.64-.72.93a7.81,7.81,0,0,1-1.84,1.5A25.1,25.1,0,0,1,73,107.07a16.07,16.07,0,0,0-4.5,2.29,40.33,40.33,0,0,0-3.21,3.46,4.71,4.71,0,0,1-2.46,1.43c-1,.21-2,.08-3,.28-.31.06-.26.49,0,.57a6.53,6.53,0,0,0,5.22-.55c1.45-.89,2.34-2.33,3.51-3.52,2.54-2.58,6.39-2.91,9.42-4.68a9.9,9.9,0,0,0,2.14-1.66,6.25,6.25,0,0,0,.82-1v-.11c.12.21.25.42.35.61a9.21,9.21,0,0,0,1.29,1.77,13.92,13.92,0,0,0,3.42,2.7,11.94,11.94,0,0,0,4.15,1.52c1.4.21,3.09.22,3.87-1.18a.18.18,0,0,0-.17-.28Z"/><path class="bu" d="M64.4,117.49a1.42,1.42,0,0,0-.74-.85,1.1,1.1,0,0,0-.59-.14.65.65,0,0,0-.36.1.35.35,0,0,0-.11.45.38.38,0,0,0,.26.2h.16l.18.06h.15l.07.07a1.67,1.67,0,0,0-.5,2.07.48.48,0,0,0,.65.17,1.8,1.8,0,0,0,.74-1A2.19,2.19,0,0,0,64.4,117.49Z"/><path class="bv" d="M75.05,110.45a.82.82,0,0,0-.44-.49,2.6,2.6,0,0,0-.47-.16,3.11,3.11,0,0,0-.86-.09,3.36,3.36,0,0,0-.84.15,1.45,1.45,0,0,0-.49.22,1.52,1.52,0,0,0-.32.39.425.425,0,0,0,.37.65,2.57,2.57,0,0,0,.4-.05.55.55,0,0,0,.18-.06h0l.16-.06.32-.07h.24a1.22,1.22,0,0,1,.33,0h.25a2.08,2.08,0,0,1,.32.12,1,1,0,0,0,.53,0,.55.55,0,0,0,.32-.55Z"/><path class="bv" d="M73.09,112.53h0l.08-.07Z"/><path class="bv" d="M73,112.58h.08Z"/><path class="bv" d="M74.4,112.93l-.16-.2a.087.087,0,0,1-.08-.06.75.75,0,0,0-.16-.15.64.64,0,0,0-.45-.18.71.71,0,0,0-.46.19.67.67,0,0,0-.15.14.531.531,0,0,0-.1.06.72.72,0,0,0-.2.31.85.85,0,0,0-.09.38v.86a.61.61,0,0,0,0,.13v.19a.71.71,0,0,0,.08.15.75.75,0,0,0,.06.13h0l.07.05a.739.739,0,0,0,.13.12,1,1,0,0,0,.77.1l.24-.1a1,1,0,0,0,.35-.35,1.47,1.47,0,0,0,.15-.34.35.35,0,0,0,0-.11,2.049,2.049,0,0,0,.06-.49,1.93,1.93,0,0,0-.06-.83Z"/><path class="bv" d="M74.05,112.55h0l.08.06Z"/><path class="bv" d="M73.93,112.46l.07.06h0Z"/><path class="bv" d="M83.3,110.45a.82.82,0,0,1,.44-.49,2.511,2.511,0,0,1,.46-.16,3.18,3.18,0,0,1,.87-.09,3.45,3.45,0,0,1,.84.15,1.4,1.4,0,0,1,.48.22,1.37,1.37,0,0,1,.33.39.425.425,0,0,1-.37.65,2.871,2.871,0,0,1-.41-.05.49.49,0,0,1-.17-.06h0l-.16-.06-.33-.07h-.23a1.3,1.3,0,0,0-.34,0c.09,0,.1,0,0,0h-.25a2.08,2.08,0,0,0-.32.12,1,1,0,0,1-.53,0,.54.54,0,0,1-.31-.55Z"/><path class="bv" d="M85.26,112.53h0l-.08-.07Z"/><path class="bv" d="M85.33,112.58h-.07Z"/><path class="bv" d="M84,112.93l.16-.2a.24.24,0,0,1,.08-.06.75.75,0,0,1,.16-.15.64.64,0,0,1,.45-.18.73.73,0,0,1,.46.19.62.62,0,0,1,.14.14s.08,0,.1.06a.66.66,0,0,1,.21.31.73.73,0,0,1,.08.38c0,.29,0,.57,0,.86v.32a.71.71,0,0,1-.08.15.16.16,0,0,1-.07.13h0l-.07.05a.74.74,0,0,1-.13.12,1,1,0,0,1-.77.1l-.24-.1a.91.91,0,0,1-.35-.35,1.47,1.47,0,0,1-.15-.34.36.36,0,0,1,0-.11,2,2,0,0,1,0-.49A1.82,1.82,0,0,1,84,112.93Z"/><path class="bv" d="M84.3,112.55h0l-.08.06Z"/><path class="bv" d="M84.42,112.46l-.07.06h0Z"/><path class="at" d="M66.15,117a6.1,6.1,0,0,0-.34-1,6.64,6.64,0,0,0-.47-.92,1.92,1.92,0,0,0-.29-.45.56.56,0,0,0-.2-.11h0a.81.81,0,0,1,0-.16.13.13,0,0,0-.2-.11.53.53,0,0,0-.19.25l-.08.12c.07-.13,0,0-.07.09a.72.72,0,0,0,0,.71c.14.3.33.57.48.87a4.671,4.671,0,0,1,.33.88c.1.35.14.7.23,1.05a.46.46,0,0,0,.5.33.47.47,0,0,0,.4-.45A3.56,3.56,0,0,0,66.15,117Z"/><path class="at" d="M66.1,121h0c0-.11-.07-.25-.19-.2h0a.37.37,0,0,0-.18,0,.44.44,0,0,0-.19.12,2.781,2.781,0,0,0-.34.26l-.59.5-.14.11h0l-.07.06L64,122l-.3.2a1.209,1.209,0,0,0-.22.15h0l-.07.06v.06h0v.08a.31.31,0,0,0,0,.19.42.42,0,0,0,.11.18.56.56,0,0,0,.41.14.82.82,0,0,0,.37-.13l.46-.31a5.94,5.94,0,0,0,.9-.76,4.11,4.11,0,0,0,.38-.45c0-.08.1-.16.14-.24a.37.37,0,0,0-.08-.17Z"/><path class="aa" d="M64.77,119.64c.15-3.17,8.22-1.74,11.39-2.83s4.48-1.27,6.29-.27,5.26.79,6.61,3.57-1.82,12.71-9.94,13S64.56,123.73,64.77,119.64Z"/><path class="at" d="M83.16,120a3.07,3.07,0,0,0-.91-.12,9.491,9.491,0,0,0-1.06.22,11.311,11.311,0,0,1-2.09.29,10.15,10.15,0,0,1-2.06-.08c-.29-.05-1.54-.43-1.58.15s1.13.84,1.61,1a11.13,11.13,0,0,0,2.23.26,9.531,9.531,0,0,0,2.19-.23,4.2,4.2,0,0,0,1.09-.35,2.22,2.22,0,0,0,.72-.77.22.22,0,0,0-.14-.37Z"/><path class="at" d="M85.57,125.62a.19.19,0,0,0-.34-.05c-.13.25-.61.24-1,.3l-1.75.29a19.63,19.63,0,0,1-3.51.28,10.35,10.35,0,0,1-3.35-.62c-1-.38-1.83-1.14-2.82-1.45-.08,0-.18.07-.15.15a4.75,4.75,0,0,0,2.58,2.24,10.2,10.2,0,0,0,4.08.87,24,24,0,0,0,4.31-.38C84.46,127.13,86,126.82,85.57,125.62Z"/><path class="i" d="M302.91,64.61a7.88,7.88,0,0,0-3.75-.81,3.129,3.129,0,0,1-.91-.09h-.13a6.423,6.423,0,0,0-.2-1.46l.57-.23a17.163,17.163,0,0,0,2-1c.28-.15.57-.31.84-.49s.56-.48.85-.7,0-.74-.3-.73-.58,0-.87,0a6.2,6.2,0,0,0-1,.16,17.363,17.363,0,0,0-1.86.45c-.43.12-.86.28-1.28.43l-.29-.36a5.2,5.2,0,0,0-1.29-1.35h0l.09-.25h0c.07-.16.16-.33.23-.49.28-.6.57-1.16.9-1.73.17-.29.31-.6.47-.89a1.47,1.47,0,0,0,.23-.77h0a.3.3,0,0,0-.36-.46h-.06a1.4,1.4,0,0,0-.88.24,5,5,0,0,0-1,.68,7.5,7.5,0,0,0-1.45,1.82c-.16.29-.3.6-.44.91a6,6,0,0,0-1.54-.2h-.21c-.07-.23-.16-.46-.23-.69-.13-.41-.24-.85-.41-1.25s-.35-.75-.53-1.13a7.38,7.38,0,0,0-.64-1,.8.8,0,0,0-1.5.41,9.364,9.364,0,0,0,.05,1.4,5.508,5.508,0,0,0,.17,1.14c.08.37.21.74.32,1.1s.12.44.19.66l-.3.16a6.05,6.05,0,0,0-1.24,1l-.53-.37-.66-.44a4.681,4.681,0,0,0-.7-.37l-.71-.35a1.54,1.54,0,0,0-.63-.19H284l-.21-.08a.64.64,0,0,0-.71.29.67.67,0,0,0,.1.76l.06.06h0a1,1,0,0,0,.31.52l.47.52c.15.17.3.36.47.52s.37.33.56.49l.85.69a5.56,5.56,0,0,0-.42,1.8l-.83.2a9.24,9.24,0,0,0-1.7.59c-.24.12-.48.26-.71.39a2.25,2.25,0,0,0-.61.58.45.45,0,0,0,.09.69,3,3,0,0,0,.82.29h.83a4,4,0,0,0,.84-.07,5.361,5.361,0,0,0,1-.13l.52-.1a5,5,0,0,0,.56,1.3h0l-.89.91-.18.18-.16.21c-.09.12-.18.24-.28.35a2.719,2.719,0,0,0-.45.72c-.05.13-.09.27-.13.4a.8.8,0,0,0,.2.78.85.85,0,0,0,.78.2,2.65,2.65,0,0,0,1-.35,7.158,7.158,0,0,0,1-.67c.28-.25.55-.52.83-.78a4.58,4.58,0,0,0,1.41.76h.13a6.782,6.782,0,0,0,.06,1.19,2.84,2.84,0,0,0,.62,1.71.68.68,0,0,0,.95,0,2.94,2.94,0,0,0,.76-1.64,7.613,7.613,0,0,0,.14-.81l1.4-.19a4.342,4.342,0,0,0,.72-.24,4.079,4.079,0,0,0,.28.44,5.86,5.86,0,0,0,1.32,1.31,2.67,2.67,0,0,0,.79.44,2.1,2.1,0,0,0,.79,0,1,1,0,0,0,.34,0,.77.77,0,0,0,.56-.74,1.5,1.5,0,0,0,0-.2,1.7,1.7,0,0,1,0-.26l-.06-.27a2.24,2.24,0,0,0-.39-.75l-.18-.27-.1-.13-.09-.13c-.19-.25-.36-.51-.55-.76.29.38,0,.06,0,0l-.18-.26-.11-.18c.05-.08.12-.15.17-.23a4.56,4.56,0,0,0,.86-1.35c.48.05,1,.1,1.44.12a5.67,5.67,0,0,0,3.82-.66.64.64,0,0,0,0-.92Z"/><path class="i" d="M298.33,70.79a.151.151,0,0,0,0,.07S298.34,70.86,298.33,70.79Z"/><path class="i" d="M484.9,11.76a7.88,7.88,0,0,0-3.75-.81l-.91-.09h-.13a6.418,6.418,0,0,0-.2-1.46l.57-.23a18.9,18.9,0,0,0,2-1c.28-.15.57-.31.84-.49s.56-.48.85-.7,0-.74-.3-.73-.58,0-.87,0a7.67,7.67,0,0,0-1,.15,17.409,17.409,0,0,0-1.86.46c-.43.12-.85.28-1.28.43L478.65,7a5.411,5.411,0,0,0-1.29-1.36h0l.09-.25h0c.07-.17.16-.33.23-.49.28-.6.57-1.16.9-1.73.17-.29.32-.6.47-.89a1.491,1.491,0,0,0,.23-.77h0c.2-.25-.05-.64-.35-.46h-.07a1.42,1.42,0,0,0-.88.24,5.4,5.4,0,0,0-1,.67,7.551,7.551,0,0,0-1.45,1.83c-.16.29-.3.6-.44.91a6,6,0,0,0-1.54-.2h-.21c-.07-.23-.16-.46-.23-.69a13,13,0,0,0-.41-1.25c-.16-.38-.35-.76-.53-1.13a7.38,7.38,0,0,0-.64-1,.84.84,0,0,0-.91-.37.84.84,0,0,0-.59.78,9.358,9.358,0,0,0,0,1.4c.05.38.09.77.17,1.14s.21.74.32,1.1.12.44.19.66c-.1.06-.2.1-.3.15a6.479,6.479,0,0,0-1.24,1c-.18-.13-.35-.26-.53-.37l-.66-.44a6.663,6.663,0,0,0-.69-.38l-.72-.35a1.7,1.7,0,0,0-.63-.18H466l-.21-.08a.62.62,0,0,0-.71.29.67.67,0,0,0,.1.76l.06.06h0a1,1,0,0,0,.31.52l.47.52c.15.17.3.35.47.52s.37.32.56.49l.85.69a5.561,5.561,0,0,0-.42,1.8l-.83.2a9.24,9.24,0,0,0-1.7.59c-.24.12-.48.25-.71.39a2.38,2.38,0,0,0-.61.57.45.45,0,0,0,.09.69,2.44,2.44,0,0,0,.82.29c.27,0,.56.05.83.06a4.76,4.76,0,0,0,.84-.07,5.36,5.36,0,0,0,1-.13l.52-.1a5,5,0,0,0,.56,1.3h0l-.89.91-.18.18-.16.21c-.09.12-.18.24-.28.35a2.72,2.72,0,0,0-.45.72c-.05.13-.09.27-.13.4a.8.8,0,0,0,.2.78.85.85,0,0,0,.78.2,2.65,2.65,0,0,0,1-.35,7.158,7.158,0,0,0,1-.67c.28-.25.55-.52.83-.78a4.58,4.58,0,0,0,1.41.76l.13.05a6.779,6.779,0,0,0,.06,1.19,2.84,2.84,0,0,0,.62,1.71.68.68,0,0,0,.95,0A2.94,2.94,0,0,0,474,18a5.725,5.725,0,0,0,.14-.81l1.4-.19a4.34,4.34,0,0,0,.72-.24,4.074,4.074,0,0,0,.28.44,5.859,5.859,0,0,0,1.32,1.31,2.671,2.671,0,0,0,.79.44,2.1,2.1,0,0,0,.79,0,1,1,0,0,0,.34,0,.77.77,0,0,0,.56-.74,1.5,1.5,0,0,0,0-.2,1.708,1.708,0,0,1,0-.27l-.06-.26a2.379,2.379,0,0,0-.39-.76l-.18-.26c-.26-.34-.29-.38-.09-.13a.64.64,0,0,1-.1-.13c-.19-.25-.36-.51-.55-.76.29.38,0,.06,0,0l-.18-.26-.11-.18c.05-.08.12-.15.17-.23a4.56,4.56,0,0,0,.86-1.35c.48,0,1,.1,1.44.12a5.73,5.73,0,0,0,3.82-.66.64.64,0,0,0-.07-1.12Z"/><path class="i" d="M480.32,17.94a.151.151,0,0,0,0,.07S480.33,18,480.32,17.94Z"/><path class="aa" d="M353.22,274a7.88,7.88,0,0,0-3.75-.81,9.045,9.045,0,0,1-.91-.09h-.13a6.59,6.59,0,0,0-.2-1.47l.57-.22a19.84,19.84,0,0,0,2-1c.28-.15.57-.32.84-.49s.56-.48.85-.7,0-.74-.3-.73h-.87a8.117,8.117,0,0,0-1,.15,17.239,17.239,0,0,0-1.85.46c-.43.12-.86.28-1.28.43l-.29-.36a5.27,5.27,0,0,0-1.3-1.36h0l.1-.24h0c.07-.17.15-.33.23-.49.28-.6.57-1.16.9-1.73.17-.29.31-.6.47-.9a1.431,1.431,0,0,0,.23-.76h0c.2-.25-.05-.64-.36-.46h-.06a1.38,1.38,0,0,0-.88.24,5.07,5.07,0,0,0-1,.67,7.55,7.55,0,0,0-1.45,1.83c-.16.29-.3.6-.44.91a6,6,0,0,0-1.54-.2h-.21c-.08-.23-.16-.46-.23-.69a13,13,0,0,0-.41-1.25c-.17-.38-.35-.76-.53-1.13a7.377,7.377,0,0,0-.64-1,.84.84,0,0,0-.91-.37.83.83,0,0,0-.59.78,10.906,10.906,0,0,0,0,1.4c.06.37.09.77.18,1.14s.21.74.32,1.1.12.44.19.66l-.3.15a5.842,5.842,0,0,0-1.24,1l-.53-.38-.66-.44a7.745,7.745,0,0,0-.7-.37l-.71-.35a1.7,1.7,0,0,0-.63-.18h-.05l-.21-.08a.61.61,0,0,0-.71.29.67.67,0,0,0,.1.76l.05.06h0a1.07,1.07,0,0,0,.31.52c.16.18.32.35.47.53l.47.52c.18.17.38.32.57.48l.85.7a5.561,5.561,0,0,0-.42,1.8l-.83.2a9.341,9.341,0,0,0-1.71.59c-.23.12-.48.25-.71.39a2.511,2.511,0,0,0-.6.57.45.45,0,0,0,.09.69,2.441,2.441,0,0,0,.82.29,3.915,3.915,0,0,1,.83.06,4.569,4.569,0,0,0,.83-.07,5.148,5.148,0,0,0,1-.13l.52-.11a5.262,5.262,0,0,0,.57,1.31h0c-.29.3-.58.61-.88.91l-.18.18-.16.21-.28.35a2.359,2.359,0,0,0-.45.72c-.05.13-.09.27-.13.4a.8.8,0,0,0,.2.78.85.85,0,0,0,.78.2,2.65,2.65,0,0,0,1-.35,7.859,7.859,0,0,0,1-.67c.28-.25.55-.52.82-.78a4.75,4.75,0,0,0,1.42.76l.12.05a7.921,7.921,0,0,0,.07,1.19,2.84,2.84,0,0,0,.62,1.71.69.69,0,0,0,.95,0,2.94,2.94,0,0,0,.76-1.64,7.574,7.574,0,0,0,.13-.81l1.41-.19a4.341,4.341,0,0,0,.72-.24c.09.15.17.3.27.44a6.309,6.309,0,0,0,1.32,1.31,2.851,2.851,0,0,0,.8.44,2.09,2.09,0,0,0,.79.05,1,1,0,0,0,.34,0,.77.77,0,0,0,.56-.74,1.359,1.359,0,0,0,0-.2,1.7,1.7,0,0,1,0-.27l-.06-.26a2.409,2.409,0,0,0-.4-.76l-.17-.26-.1-.13-.09-.13c-.19-.25-.36-.51-.55-.76.29.37,0,.06,0,0l-.18-.27a1.082,1.082,0,0,1-.11-.18c.05-.07.12-.14.17-.22a4.56,4.56,0,0,0,.86-1.35q.72.07,1.44.12a5.73,5.73,0,0,0,3.82-.66.65.65,0,0,0,.15-1.07Z"/><path class="aa" d="M348.64,280.14a.17.17,0,0,0,0,.07S348.65,280.21,348.64,280.14Z"/><path class="i" d="M151.62,174.32a7.88,7.88,0,0,0-3.75-.81l-.91-.09h-.13a6.59,6.59,0,0,0-.2-1.47l.57-.22a18.9,18.9,0,0,0,2-1c.28-.15.57-.32.84-.49s.56-.48.85-.71,0-.73-.3-.72h-.87a7.673,7.673,0,0,0-1,.15c-.62.11-1.25.28-1.86.45-.43.13-.86.28-1.28.44l-.29-.37a5.36,5.36,0,0,0-1.29-1.35h0l.09-.24h0c.07-.17.16-.33.23-.49.28-.6.57-1.16.9-1.73.17-.29.31-.6.47-.9A1.43,1.43,0,0,0,146,164h0a.29.29,0,0,0-.36-.45h-.06a1.44,1.44,0,0,0-.88.23,5.449,5.449,0,0,0-1,.68,7.7,7.7,0,0,0-1.45,1.82c-.16.3-.3.6-.44.91a7.059,7.059,0,0,0-1.54-.2h-.21c-.07-.23-.16-.47-.23-.69a13,13,0,0,0-.41-1.25c-.16-.38-.35-.76-.53-1.13a6.771,6.771,0,0,0-.64-1,.82.82,0,0,0-.91-.37.84.84,0,0,0-.59.78,9.36,9.36,0,0,0,.05,1.4,5.612,5.612,0,0,0,.17,1.14c.08.37.21.73.32,1.1.06.22.12.44.19.66l-.3.15a6.1,6.1,0,0,0-1.24,1l-.53-.38-.66-.44a7.746,7.746,0,0,0-.7-.37l-.71-.35a1.7,1.7,0,0,0-.63-.18h-.05l-.21-.09a.64.64,0,0,0-.71.29.69.69,0,0,0,.1.77l.06.06h0a.94.94,0,0,0,.31.52c.15.18.31.35.47.52s.3.36.47.53.37.32.56.48.56.47.85.69a5.68,5.68,0,0,0-.42,1.81l-.83.2a8.56,8.56,0,0,0-1.7.59,8.067,8.067,0,0,0-.71.39,2.38,2.38,0,0,0-.61.57.45.45,0,0,0,.09.69,2.44,2.44,0,0,0,.82.29,3.868,3.868,0,0,1,.83.06,5.69,5.69,0,0,0,.83-.07,6.278,6.278,0,0,0,1.05-.13l.52-.11a4.89,4.89,0,0,0,.56,1.31h0c-.3.3-.59.61-.89.9l-.18.19-.16.21-.28.35a2.43,2.43,0,0,0-.45.72c-.05.13-.09.27-.13.4a.79.79,0,0,0,.2.77.83.83,0,0,0,.78.21,2.65,2.65,0,0,0,1-.35,8.21,8.21,0,0,0,1-.67c.28-.25.55-.52.83-.78a4.35,4.35,0,0,0,1.41.75.52.52,0,0,0,.13.06,6.828,6.828,0,0,0,.06,1.19,2.86,2.86,0,0,0,.62,1.71.69.69,0,0,0,.95,0,2.94,2.94,0,0,0,.76-1.65,5.339,5.339,0,0,0,.13-.8l1.41-.19a4.34,4.34,0,0,0,.72-.24,4,4,0,0,0,.28.43,5.62,5.62,0,0,0,1.31,1.31,2.88,2.88,0,0,0,.8.45,2.33,2.33,0,0,0,.79.05,2,2,0,0,0,.34,0,.77.77,0,0,0,.56-.74,1.363,1.363,0,0,0,0-.2,2,2,0,0,1,0-.27L147,180a2.22,2.22,0,0,0-.4-.76,2.33,2.33,0,0,0-.17-.26l-.1-.13-.09-.13c-.19-.25-.36-.51-.55-.76.29.37,0,.05,0,0l-.18-.27-.11-.18c0-.08.12-.14.17-.22a4.83,4.83,0,0,0,.86-1.35q.72.08,1.44.12a5.73,5.73,0,0,0,3.82-.66.64.64,0,0,0-.07-1.08Z"/><path class="i" d="M147,180.5a.17.17,0,0,0,0,.07S147.05,180.57,147,180.5Z"/><path class="i" d="M229.94,18.23a5.51,5.51,0,0,0-2.69-.58l-.65-.07h-.09a4.591,4.591,0,0,0-.15-1.06l.41-.16a12.909,12.909,0,0,0,1.46-.68c.21-.11.42-.23.61-.35s.4-.35.61-.51,0-.53-.22-.52-.42,0-.62,0a5.65,5.65,0,0,0-.7.11,12.911,12.911,0,0,0-1.33.33c-.31.08-.61.2-.92.31l-.2-.26a4.349,4.349,0,0,0-.93-1h0s.05-.11.07-.17h0c0-.12.11-.23.16-.35.2-.43.41-.83.65-1.24.12-.21.22-.43.34-.64a1.12,1.12,0,0,0,.16-.55h0a.21.21,0,0,0-.26-.33h0a1,1,0,0,0-.64.16,4.29,4.29,0,0,0-.69.49,5.5,5.5,0,0,0-1.05,1.31c-.11.21-.21.43-.31.65a4.5,4.5,0,0,0-1.11-.14h-.15c-.05-.17-.11-.33-.16-.5s-.18-.6-.3-.89-.25-.55-.38-.81a5.269,5.269,0,0,0-.46-.7.59.59,0,0,0-.65-.27.6.6,0,0,0-.42.56,5.688,5.688,0,0,0,0,1,3.866,3.866,0,0,0,.12.82c.06.27.16.52.23.79l.14.47-.22.11a4.93,4.93,0,0,0-.89.69l-.38-.27-.47-.31a4.819,4.819,0,0,0-.5-.27l-.51-.25a1.17,1.17,0,0,0-.46-.13h0l-.15-.06a.46.46,0,0,0-.51.21.47.47,0,0,0,.07.55h0a.71.71,0,0,0,.22.37c.11.13.22.25.34.37s.21.26.33.38l.41.35.61.5a4.11,4.11,0,0,0-.3,1.29l-.6.15a5.87,5.87,0,0,0-1.22.42,5.05,5.05,0,0,0-.51.28,1.53,1.53,0,0,0-.43.41.32.32,0,0,0,.06.5,1.72,1.72,0,0,0,.59.2l.59.05a2.434,2.434,0,0,0,.6-.05l.75-.1.37-.07a3.66,3.66,0,0,0,.41.93h0l-.63.65-.13.13-.12.15c-.06.09-.13.17-.2.26a1.69,1.69,0,0,0-.32.51.836.836,0,0,1-.1.29.58.58,0,0,0,.15.56.6.6,0,0,0,.56.14,1.77,1.77,0,0,0,.73-.25,5.529,5.529,0,0,0,.68-.48c.21-.18.4-.37.6-.56a3.18,3.18,0,0,0,1,.54h.09a6.2,6.2,0,0,0,0,.86,2,2,0,0,0,.44,1.22.5.5,0,0,0,.69,0,2.11,2.11,0,0,0,.54-1.18,3.7,3.7,0,0,0,.1-.58l1-.13a3.81,3.81,0,0,0,.51-.17l.2.31a4.24,4.24,0,0,0,.95.94,2.14,2.14,0,0,0,.57.32,1.56,1.56,0,0,0,.57,0,.66.66,0,0,0,.24,0,.55.55,0,0,0,.41-.53q0-.075,0-.15v-.19a1.621,1.621,0,0,0,0-.19,1.85,1.85,0,0,0-.28-.54,2.14,2.14,0,0,1-.13-.19l-.07-.09-.07-.09c-.13-.19-.25-.37-.39-.55h0l-.14-.19a.57.57,0,0,0-.08-.13l.13-.17a3.33,3.33,0,0,0,.61-1l1,.08a4,4,0,0,0,2.74-.47.45.45,0,0,0,.07-.6Z"/><path class="i" d="M226.65,22.67Z"/><path class="i" d="M708.79,56.4a5.63,5.63,0,0,0-1.95,2l-.41.51v.07a4.679,4.679,0,0,0-1-.44l.09-.43a14.593,14.593,0,0,0,.21-1.6c0-.23,0-.47,0-.71a6.913,6.913,0,0,0-.1-.78c0-.27-.43-.31-.55-.1s-.23.35-.34.52a4.882,4.882,0,0,0-.28.65,12.257,12.257,0,0,0-.44,1.29c-.1.31-.17.63-.24.95h-.33a3.83,3.83,0,0,0-1.32.26h0l-.12-.15h0c-.08-.11-.14-.22-.21-.33-.26-.4-.48-.8-.7-1.22-.11-.21-.24-.42-.36-.63a1,1,0,0,0-.37-.43h0a.21.21,0,0,0-.41,0v.06a1.09,1.09,0,0,0-.2.62,4.005,4.005,0,0,0,0,.85,5.191,5.191,0,0,0,.54,1.58,5.732,5.732,0,0,0,.38.62,4.561,4.561,0,0,0-.72.85.915.915,0,0,0-.07.14l-.51-.13c-.3-.08-.61-.18-.91-.24L697.6,60a7.661,7.661,0,0,0-.83,0,.6.6,0,0,0-.58.41.59.59,0,0,0,.24.66,7.56,7.56,0,0,0,.86.52c.25.11.5.24.76.33s.53.16.79.24l.47.14v.24a4.249,4.249,0,0,0,.1,1.12l-.43.17-.52.23a4.754,4.754,0,0,0-.49.28l-.49.3a1.06,1.06,0,0,0-.36.31h0l-.13.1a.44.44,0,0,0-.1.54.46.46,0,0,0,.49.23h.09a.7.7,0,0,0,.43,0l.5-.09a4.713,4.713,0,0,0,.5-.08l.51-.15.75-.24a4.19,4.19,0,0,0,.93,1c-.07.19-.14.38-.2.58a6,6,0,0,0-.31,1.25v.59a1.62,1.62,0,0,0,.12.58.32.32,0,0,0,.45.22,2.049,2.049,0,0,0,.49-.39l.36-.48a4.432,4.432,0,0,0,.28-.53c.11-.22.22-.45.32-.68l.14-.35a3.729,3.729,0,0,0,1,.16h.05l.21.89a.846.846,0,0,0,0,.17l.06.18a.963.963,0,0,0,.11.31,1.641,1.641,0,0,0,.26.55l.19.24a.58.58,0,0,0,.55.17.59.59,0,0,0,.42-.39,1.919,1.919,0,0,0,.18-.75,5.991,5.991,0,0,0,0-.84,4.635,4.635,0,0,0-.14-.8,3.289,3.289,0,0,0,1-.56h.08a6,6,0,0,0,.75.42,2,2,0,0,0,1.27.29.5.5,0,0,0,.37-.58,2.16,2.16,0,0,0-.7-1.1,5.326,5.326,0,0,0-.44-.39c.15-.31.29-.61.43-.92a5.157,5.157,0,0,0,.14-.53h.37a4.16,4.16,0,0,0,1.3-.29,1.91,1.91,0,0,0,.58-.31,1.39,1.39,0,0,0,.33-.46.61.61,0,0,0,.12-.21.53.53,0,0,0-.23-.62l-.13-.07-.17-.08-.19-.07a1.78,1.78,0,0,0-.61,0h-1.52a1.381,1.381,0,0,0-.06-.19,3.311,3.311,0,0,0-.49-1c.22-.27.43-.55.63-.83a4,4,0,0,0,1.08-2.56.46.46,0,0,0-.75-.48Z"/><path class="i" d="M710.75,61.57Z"/><path class="aa" d="M628.91,328.65a5.629,5.629,0,0,0-2.69-.58l-.66-.07h-.09a4.582,4.582,0,0,0-.14-1.05l.41-.16a13.872,13.872,0,0,0,1.46-.69,5.319,5.319,0,0,0,.61-.35c.21-.14.4-.34.6-.5s0-.53-.21-.52h-.62a5.678,5.678,0,0,0-.7.12,10.7,10.7,0,0,0-1.33.32c-.31.09-.61.2-.92.31l-.21-.26a3.739,3.739,0,0,0-.93-1h0l.07-.18h0l.17-.35c.2-.43.41-.84.65-1.25.12-.2.22-.43.33-.64a1,1,0,0,0,.17-.55h0c.15-.18,0-.46-.25-.33h0a1,1,0,0,0-.63.17,3.39,3.39,0,0,0-.7.49,5.659,5.659,0,0,0-1,1.3,6.69,6.69,0,0,0-.31.66,4.569,4.569,0,0,0-1.11-.15h-.15a1.591,1.591,0,0,0-.17-.49,9.432,9.432,0,0,0-.29-.9c-.12-.27-.25-.54-.38-.81a5.281,5.281,0,0,0-.46-.7.58.58,0,0,0-1.08.3,8.358,8.358,0,0,0,0,1,3.885,3.885,0,0,0,.13.82c.06.27.15.53.23.79s.09.32.14.48a.91.91,0,0,0-.22.11,4.249,4.249,0,0,0-.89.69c-.13-.09-.25-.19-.38-.27l-.47-.32a4.739,4.739,0,0,0-.5-.26l-.51-.25a1.291,1.291,0,0,0-.46-.14h0l-.15-.06a.45.45,0,0,0-.51.2.47.47,0,0,0,.07.55v.05h0a.731.731,0,0,0,.23.37l.33.38c.12.12.22.26.34.37a4.461,4.461,0,0,0,.41.35l.6.5a4.391,4.391,0,0,0-.29,1.3l-.6.14a6.512,6.512,0,0,0-1.22.42c-.18.09-.35.18-.51.28a1.913,1.913,0,0,0-.44.41.33.33,0,0,0,.07.5,1.76,1.76,0,0,0,.58.21h.6a4,4,0,0,0,.6-.05,3.858,3.858,0,0,0,.75-.1l.37-.07a3.848,3.848,0,0,0,.4.94h0c-.21.22-.42.44-.64.65l-.12.13-.12.16-.2.25a1.821,1.821,0,0,0-.32.51,1,1,0,0,1-.1.29.58.58,0,0,0,.15.56.63.63,0,0,0,.56.15,1.83,1.83,0,0,0,.72-.26,4.719,4.719,0,0,0,.69-.48c.21-.18.4-.37.6-.56a3.2,3.2,0,0,0,1,.55h.09a6.154,6.154,0,0,0,0,.85,2,2,0,0,0,.44,1.23.5.5,0,0,0,.69,0,2.14,2.14,0,0,0,.54-1.18,4.165,4.165,0,0,0,.1-.58l1-.14a2.875,2.875,0,0,0,.52-.17l.2.31a4,4,0,0,0,1,.94,1.891,1.891,0,0,0,.57.32,1.56,1.56,0,0,0,.57,0,1.059,1.059,0,0,0,.24,0,.54.54,0,0,0,.4-.53s0-.09,0-.14v-.38a1.65,1.65,0,0,0-.29-.54l-.12-.2-.07-.09-.07-.09c-.13-.18-.26-.37-.4-.55h0l-.13-.19-.08-.13c0-.05.09-.1.13-.16a3.379,3.379,0,0,0,.61-1c.35,0,.69.07,1,.09a4.12,4.12,0,0,0,2.74-.48.45.45,0,0,0-.04-.62Z"/><path class="aa" d="M625.62,333.09a.089.089,0,0,0,0,.05Z"/><path class="i" d="M633.72,169.89a5.75,5.75,0,0,0-2.69-.58l-.66-.06h-.09a4.576,4.576,0,0,0-.14-1l.41-.16a12.909,12.909,0,0,0,1.46-.68c.21-.11.41-.23.61-.36s.4-.34.6-.5A.3.3,0,0,0,633,166h-.62a5.653,5.653,0,0,0-.7.11c-.44.08-.89.2-1.33.32s-.61.2-.92.31l-.21-.26a3.741,3.741,0,0,0-.93-1h0l.07-.18h0c.06-.12.12-.23.17-.35.2-.43.41-.83.65-1.24.12-.21.22-.43.33-.65a1,1,0,0,0,.17-.54h0c.15-.18,0-.46-.25-.33h-.05a1,1,0,0,0-.63.17,3.388,3.388,0,0,0-.7.49,5.512,5.512,0,0,0-1,1.31c-.11.21-.22.43-.31.65a4.562,4.562,0,0,0-1.11-.14h-.15c-.05-.17-.11-.34-.16-.5s-.18-.61-.3-.9-.25-.54-.38-.81a5.166,5.166,0,0,0-.46-.69.59.59,0,0,0-.65-.27.61.61,0,0,0-.43.56,6.637,6.637,0,0,0,0,1,7.355,7.355,0,0,0,.12.82c.06.27.15.53.23.79s.09.32.14.48l-.22.11a4.25,4.25,0,0,0-.89.69l-.38-.27-.47-.31a3.459,3.459,0,0,0-.5-.27l-.51-.25a1.1,1.1,0,0,0-.46-.13h0l-.15-.06a.45.45,0,0,0-.44.75h0a.75.75,0,0,0,.23.38l.33.37c.12.13.22.26.34.38l.41.35.6.49a4.462,4.462,0,0,0-.29,1.3l-.6.14a7.32,7.32,0,0,0-1.22.42c-.18.09-.35.19-.51.29a1.719,1.719,0,0,0-.44.41.32.32,0,0,0,.07.49,1.759,1.759,0,0,0,.58.21h.6a3,3,0,0,0,.6-.05,2.145,2.145,0,0,0,.75-.09l.37-.08a3.7,3.7,0,0,0,.4.94h0l-.64.66-.12.13-.12.15-.2.25a1.739,1.739,0,0,0-.32.52,2.469,2.469,0,0,0-.1.29.56.56,0,0,0,.15.55.6.6,0,0,0,.56.15,2,2,0,0,0,.72-.25,4.787,4.787,0,0,0,.69-.49c.21-.17.4-.37.6-.55a3.389,3.389,0,0,0,1,.54h.09a6.145,6.145,0,0,0,.05.85,2,2,0,0,0,.44,1.23.5.5,0,0,0,.69,0,2.14,2.14,0,0,0,.54-1.18,3.906,3.906,0,0,0,.1-.58l1-.14a2.878,2.878,0,0,0,.52-.17c.07.11.13.22.2.31a4.279,4.279,0,0,0,.95.95,2.109,2.109,0,0,0,.57.31,1.37,1.37,0,0,0,.57,0,1,1,0,0,0,.24,0,.56.56,0,0,0,.4-.53q0-.075,0-.15a1.371,1.371,0,0,1,0-.19v-.19a1.76,1.76,0,0,0-.29-.54l-.12-.19c-.19-.25-.21-.28-.07-.09a.858.858,0,0,0-.07-.1c-.13-.18-.26-.37-.4-.55.22.27,0,.05,0,0l-.14-.2-.08-.13c0-.05.09-.1.13-.16a3.381,3.381,0,0,0,.61-1c.35,0,.69.07,1,.09a4.06,4.06,0,0,0,2.74-.48.45.45,0,0,0,.04-.59Z"/><path class="i" d="M630.43,174.33Z"/><path class="i" d="M13,83.22A5.71,5.71,0,0,0,10.85,85c-.15.16-.3.32-.46.47l-.06.06A4.519,4.519,0,0,0,9.41,85l.14-.42A14.35,14.35,0,0,0,9.93,83c0-.23.08-.46.1-.69s0-.53,0-.79a.309.309,0,0,0-.54-.16c-.15.2-.27.32-.39.48a6.139,6.139,0,0,0-.34.62,10.78,10.78,0,0,0-.58,1.24c-.13.3-.23.61-.33.91H7.49a4,4,0,0,0-1.34.12h0l-.09-.16H6c-.06-.12-.11-.24-.17-.35-.21-.43-.4-.84-.57-1.28-.09-.23-.19-.45-.29-.67a1.06,1.06,0,0,0-.33-.47h0a.21.21,0,0,0-.42,0h0a1,1,0,0,0-.26.6,3.47,3.47,0,0,0-.05.85,5.3,5.3,0,0,0,.37,1.63c.09.22.2.44.31.65a4.53,4.53,0,0,0-.8.78l-.09.13-.49-.19a9.251,9.251,0,0,0-.88-.32c-.29-.09-.58-.15-.87-.22a5.811,5.811,0,0,0-.83-.07.6.6,0,0,0-.62.34.6.6,0,0,0,.17.68,7.141,7.141,0,0,0,.81.61c.23.13.47.29.72.41s.5.21.76.31l.45.19a.418.418,0,0,1-.05.24,4.27,4.27,0,0,0,0,1.13l-.45.13-.54.17a4.771,4.771,0,0,0-.52.22l-.52.25a1.1,1.1,0,0,0-.38.27h0l-.14.08a.47.47,0,0,0-.16.53.5.5,0,0,0,.48.29H.71a.69.69,0,0,0,.43.06h1a4.511,4.511,0,0,0,.53-.1l.77-.16a4.18,4.18,0,0,0,.83,1c-.09.19-.18.37-.26.56A6.58,6.58,0,0,0,3.57,94a4.016,4.016,0,0,1-.1.57,2,2,0,0,0,0,.6.33.33,0,0,0,.43.26,2.06,2.06,0,0,0,.53-.33c.14-.14.27-.3.41-.44a5.391,5.391,0,0,0,.33-.5c.13-.22.27-.43.39-.65l.18-.33a3.54,3.54,0,0,0,1,.26h0c0,.3.09.6.12.9a1.1,1.1,0,0,0,0,.18v.19a.5.5,0,0,0,.08.31,1.74,1.74,0,0,0,.2.58c.05.08.11.16.16.25a.58.58,0,0,0,1-.11A1.73,1.73,0,0,0,8.68,95a5.83,5.83,0,0,0,.05-.84,3.686,3.686,0,0,0-.06-.81,3.53,3.53,0,0,0,1.06-.45h.08a5.9,5.9,0,0,0,.7.5,2.06,2.06,0,0,0,1.24.42.49.49,0,0,0,.42-.54,2.11,2.11,0,0,0-.58-1.16,4.09,4.09,0,0,0-.39-.44l.52-.87a3.52,3.52,0,0,0,.19-.51h.37a4.19,4.19,0,0,0,1.32-.15,2.18,2.18,0,0,0,.61-.25,1.53,1.53,0,0,0,.38-.42,1,1,0,0,0,.14-.2.56.56,0,0,0-.16-.65l-.12-.07-.17-.1-.17-.09a1.61,1.61,0,0,0-.61-.11H12a.288.288,0,0,0-.05-.2,3.43,3.43,0,0,0-.37-1.09c.24-.25.48-.49.71-.75a4.14,4.14,0,0,0,1.34-2.44.46.46,0,0,0-.63-.56Z"/><path class="i" d="M14.4,88.56Z"/><path class="i" d="M40.08,314.56A4.65,4.65,0,0,0,38.3,316l-.38.38-.06.06a3.461,3.461,0,0,0-.76-.45,1.651,1.651,0,0,1,.11-.36,9.489,9.489,0,0,0,.32-1.3,5.769,5.769,0,0,1,.08-.58c.02-.19,0-.44,0-.65a.25.25,0,0,0-.45-.13c-.1.14-.22.26-.32.4a3.2,3.2,0,0,0-.29.51,9.64,9.64,0,0,0-.48,1c-.11.25-.19.51-.28.76h-.27a3.19,3.19,0,0,0-1.12.1h0l-.08-.14h0l-.15-.29c-.17-.35-.32-.7-.47-1.07-.07-.18-.16-.37-.24-.55a.91.91,0,0,0-.27-.39h0a.17.17,0,1,0-.34,0v.05a.8.8,0,0,0-.22.5,2.72,2.72,0,0,0,0,.7,4.56,4.56,0,0,0,.31,1.36,4.427,4.427,0,0,0,.26.54,3.69,3.69,0,0,0-.67.64l-.07.11-.41-.15a6.55,6.55,0,0,0-.74-.27,7.1,7.1,0,0,0-.72-.18,3.929,3.929,0,0,0-.69-.06.48.48,0,0,0-.51.28.49.49,0,0,0,.14.57,6.476,6.476,0,0,0,.67.5c.19.11.39.24.6.34s.42.18.63.27l.38.15v.2a3.7,3.7,0,0,0,0,.94l-.37.1-.45.15a3.3,3.3,0,0,0-.43.19l-.43.2a1,1,0,0,0-.32.22h0l-.12.07a.39.39,0,0,0-.13.44.4.4,0,0,0,.39.24h.07a.56.56,0,0,0,.36.05h.84a3.722,3.722,0,0,0,.44-.08l.63-.14a3.44,3.44,0,0,0,.69.87l-.22.46a5.38,5.38,0,0,0-.36,1,4.367,4.367,0,0,1-.08.48,1.6,1.6,0,0,0,0,.49.26.26,0,0,0,.36.21,1.34,1.34,0,0,0,.44-.27c.11-.12.23-.24.34-.37a2.23,2.23,0,0,0,.27-.41c.11-.18.23-.35.33-.54l.15-.28a2.88,2.88,0,0,0,.81.23h0c0,.25.07.5.09.75v.3l.06.27a1.33,1.33,0,0,0,.17.47,1.642,1.642,0,0,0,.14.22.45.45,0,0,0,.43.19.49.49,0,0,0,.39-.29,1.53,1.53,0,0,0,.21-.6,4,4,0,0,0,0-.7,2.535,2.535,0,0,0-.06-.67,2.76,2.76,0,0,0,.88-.38h.08A4.941,4.941,0,0,0,38,323a1.68,1.68,0,0,0,1,.34.4.4,0,0,0,.36-.44,1.84,1.84,0,0,0-.49-1,3.731,3.731,0,0,0-.32-.36l.43-.73a2.41,2.41,0,0,0,.16-.42h.3a3.45,3.45,0,0,0,1.11-.13,1.811,1.811,0,0,0,.5-.2,1.34,1.34,0,0,0,.32-.35,1.249,1.249,0,0,0,.12-.17.47.47,0,0,0-.14-.54l-.1-.06-.14-.08-.15-.07a1.39,1.39,0,0,0-.5-.1H39.2v-.17a2.83,2.83,0,0,0-.31-.9c.2-.21.4-.41.59-.63a3.38,3.38,0,0,0,1.11-2,.38.38,0,0,0-.51-.43Z"/><path class="i" d="M41.25,319Z"/></g></g></svg>