<svg xmlns="http://www.w3.org/2000/svg" width="8.792" height="12" viewBox="0 0 8.792 12"><defs><style>.a{fill:#183544;}</style></defs><g transform="translate(0.001 0.018)"><path class="a" d="M11.392,10.08a1.312,1.312,0,1,1-1.312,1.312,1.312,1.312,0,0,1,1.312-1.312m0-.75a2.062,2.062,0,1,0,2.062,2.062A2.062,2.062,0,0,0,11.392,9.33Z" transform="translate(-6.999 -7.012)"/><path class="a" d="M4.393,11.982a.5.5,0,0,1-.417-.225L.684,6.734a4.4,4.4,0,1,1,7.422,0h0L4.813,11.757A.5.5,0,0,1,4.393,11.982Zm0-11A3.4,3.4,0,0,0,1.524,6.2L4.393,10.57,7.264,6.194A3.394,3.394,0,0,0,4.393.986Z" transform="translate(0 0)"/></g></svg>