<svg xmlns="http://www.w3.org/2000/svg" width="77" height="84" viewBox="0 0 77 84"><defs><style>.a,.g{fill:none;}.a{opacity:0.4;}.b{fill:#e2f4ff;}.c{fill:#d0e3fa;}.d{fill:#87e5e1;}.e{fill:#4e98ef;}.f{fill:#2279a7;}.g{stroke:#006395;stroke-miterlimit:10;}</style></defs><rect class="a" width="77" height="82" transform="translate(0 2)"/><path class="b" d="M35.789-1.387c21.817,8.8,35.789,14.33,35.789,32.007S58.535,68.447,38.769,68.447,0,48.3,0,30.619,13.972-10.188,35.789-1.387Z" transform="translate(3.492 5.98)"/><path class="c" d="M0,18.32S5.471-.035,26.648,0C40.007.02,52.993,8.929,52.993,8.929S39.023,32.6,0,18.32Z" transform="translate(3.412 36.141) rotate(-43)"/><path class="d" d="M0,15.856S2.9-.027,19.183,0c10.269.016,17.1,12.415,17.1,12.415S26.219,23.111,0,15.856Z" transform="translate(9.023 46.269) rotate(-47)"/><path class="e" d="M0,6.363S1.968,3.622,8.8,3.634C13.114,3.64,18.8,0,18.8,0S12.595,10.972,0,6.363Z" transform="matrix(0.616, -0.788, 0.788, 0.616, 40.582, 34.497)"/><path class="f" d="M25.692.958C5.584-3.226,0,7.647,0,7.647,13.435,12.979,25.692.958,25.692.958Z" transform="matrix(0.695, -0.719, 0.719, 0.695, 14.982, 52.79)"/><g transform="translate(15.712 17.395)"><path class="g" d="M485.605,2120.368H471.2a4.656,4.656,0,0,1-4.589-3.869l-2.828-16.5H460" transform="translate(-460 -2100)"/><path class="g" d="M468,2108h22.7l-1.418,6.733a5.818,5.818,0,0,1-5.32,4.608l-13.918.9" transform="translate(-463.344 -2103.344)"/><circle class="g" cx="2.037" cy="2.037" r="2.037" transform="translate(6.983 22.696)"/><circle class="g" cx="2.037" cy="2.037" r="2.037" transform="translate(20.95 22.696)"/></g></svg>