<svg xmlns="http://www.w3.org/2000/svg" width="20.539" height="20.539" viewBox="0 0 20.539 20.539"><defs><style>.a{fill:#ecf2f5;}</style></defs><path class="a" d="M33.43,23.161a10.27,10.27,0,1,0-10.27,10.27A10.282,10.282,0,0,0,33.43,23.161Zm-10.27,9.189A9.128,9.128,0,0,1,18.365,31a4.864,4.864,0,0,1,9.591,0A9.131,9.131,0,0,1,23.161,32.349ZM19.377,22.08a3.784,3.784,0,1,1,3.784,3.784A3.788,3.788,0,0,1,19.377,22.08Zm9.54,8.238A5.951,5.951,0,0,0,25.5,26.342a4.865,4.865,0,1,0-4.683,0A5.949,5.949,0,0,0,17.4,30.317a9.189,9.189,0,1,1,11.513,0Z" transform="translate(-12.891 -12.891)"/></svg>