<svg xmlns="http://www.w3.org/2000/svg" width="60.73" height="17" viewBox="0 0 60.73 17"><defs><style>.a{fill:#fff;}</style></defs><g transform="translate(-28 -44)"><rect class="a" width="2.809" height="11.238" transform="translate(64.924 44.099) rotate(90)"/><rect class="a" width="2.809" height="11.238" transform="translate(64.924 51.121) rotate(90)"/><rect class="a" width="2.809" height="11.238" transform="translate(64.924 58.144) rotate(90)"/><path class="a" d="M1887.212,764.417a5.559,5.559,0,0,1-2.927.838,5.618,5.618,0,1,1,5.584-6.033l2.731,1.677a8.117,8.117,0,0,0,.113-1.262,8.472,8.472,0,1,0-2.926,6.359Z" transform="translate(-1805.558 -707.111)"/><rect class="a" width="2.809" height="6.967" transform="matrix(-0.523, 0.852, -0.852, -0.523, 88.73, 56.588)"/><path class="a" d="M1852.255,768.145h2.906l-4.514-17h-2.906Z" transform="translate(-1819.741 -707.145)"/><path class="a" d="M1855.938,768.145h2.827l-1.86-17h-2.826Z" transform="translate(-1816.543 -707.145)"/><path class="a" d="M1858.787,768.145h2.834l2.272-17h-2.834Z" transform="translate(-1814.168 -707.145)"/></g></svg>