<svg xmlns="http://www.w3.org/2000/svg" width="252" height="42" viewBox="0 0 252 42"><defs><style>.a,.b{fill:#1c4960;}.a{font-size:17px;font-family:Cabin-Regular, Cabin;}</style></defs><g transform="translate(-47.902 -548)"><g transform="translate(192.613 547)"><text class="a" transform="translate(1.289 17)"><tspan x="0" y="0">Book your slot </tspan><tspan x="0" y="22">&amp; be safe</tspan></text></g><g transform="translate(47.902 551.856)"><rect class="b" width="6.167" height="24.673" transform="translate(81.07 0.217) rotate(90)"/><rect class="b" width="6.167" height="24.673" transform="translate(81.069 15.636) rotate(90)"/><rect class="b" width="6.167" height="24.673" transform="translate(81.07 31.054) rotate(90)"/><path class="b" d="M1900.786,780.2a12.209,12.209,0,0,1-6.428,1.84,12.334,12.334,0,1,1,12.261-13.245l6,3.683a17.817,17.817,0,0,0,.248-2.771,18.6,18.6,0,1,0-6.425,13.962Z" transform="translate(-1782.986 -750.992)"/><rect class="b" width="6.167" height="15.297" transform="matrix(-0.523, 0.852, -0.852, -0.523, 133.337, 27.638)"/><path class="b" d="M1857.652,788.469h6.381l-9.911-37.324h-6.381Z" transform="translate(-1847.741 -751.145)"/><path class="b" d="M1858.16,788.469h6.207l-4.083-37.324h-6.2Z" transform="translate(-1833.142 -751.145)"/><path class="b" d="M1858.787,788.469h6.222L1870,751.145h-6.222Z" transform="translate(-1822.3 -751.145)"/></g></g></svg>